<svg width="101" height="35" viewBox="0 0 101 35" fill="none" xmlns="http://www.w3.org/2000/svg">
<mask id="path-1-outside-1_52_883" maskUnits="userSpaceOnUse" x="0" y="0" width="101" height="35" fill="black">
<rect fill="white" width="101" height="35"/>
<path fill-rule="evenodd" clip-rule="evenodd" d="M89.7578 3C87.1465 3.78337 82.036 6.24538 82.4836 9.8265C82.9313 13.4076 85.6544 13.2584 86.96 12.7361C87.2211 12.5496 87.5867 11.9975 86.96 11.2813C86.6784 10.9595 86.2667 10.7244 85.8704 10.4982C85.1641 10.095 84.5068 9.71972 84.7218 8.93122C84.9904 7.94641 86.7735 9.11773 87.6315 9.8265C88.3775 10.9829 89.4628 12.3195 89.0863 8.93122C88.7823 6.19539 89.2123 6.12016 89.6286 6.04733C89.6721 6.03973 89.7154 6.03215 89.7578 6.02156C90.4861 5.83949 90.5411 7.70021 90.5411 8.7074C90.5411 9.24451 90.4874 9.6384 90.4445 9.95353L90.4445 9.95362C90.38 10.4263 90.3397 10.7218 90.5411 11.0575C90.7251 11.3642 91.1148 10.8554 91.6815 10.1153C91.9079 9.81971 92.1625 9.48722 92.4436 9.15504C93.4284 7.99118 94.4207 8.22246 94.7937 8.48358C95.0921 8.63279 95.5201 9.57023 93.7865 10.386C91.8841 11.2813 92.3317 12.0647 92.3317 12.0647C92.3317 12.0647 92.5331 13.43 94.2342 13.0719C95.9352 12.7138 96.7335 11.1321 96.92 10.386C97.1438 9.71459 97.0319 7.8345 94.7937 5.68583C92.5555 3.53717 90.5038 3 89.7578 3ZM85.7514 18.2873C86.8101 18.5324 87.2253 18.6286 86.3882 15.5313C83.9262 14.6338 78.2604 16.5057 76.764 20.4531C75.9735 22.538 75.4553 24.3574 76.764 26.1628C78.1273 28.0436 82.4714 27.8391 82.4714 27.8391C82.4714 27.8391 84.7 27.5034 84.15 29.5201C83.8143 30.7511 85.381 32.3178 86.3882 29.8558C86.6851 29.1301 86.9819 28.3558 87.2645 27.6188L87.2647 27.6183C87.9407 25.8552 88.5346 24.3062 88.8502 24.1484C89.2083 23.9693 89.4471 23.0293 89.5217 22.5816C89.2606 21.7237 87.664 20.3211 83.3666 21.5745C77.8831 24.4841 83.5905 23.9223 83.5905 23.9223C83.5905 23.9223 85.1166 23.4729 85.6048 23.6984C86.1248 23.9386 85.6863 25.0953 84.4857 25.6032C82.158 26.588 79.1389 25.6032 78.8902 24.4841C78.037 20.6444 82.368 18.9394 84.2296 18.2066C84.3213 18.1705 84.407 18.1368 84.4857 18.1052C84.9651 18.1052 85.3948 18.2047 85.7514 18.2873ZM70.3373 25.1546C75.3733 30.0786 75.2614 16.0899 74.5899 12.285C74.105 11.054 72.9336 9.46487 72.1279 12.9565C71.3221 16.448 71.3445 18.8877 71.4564 19.671C71.6056 21.1259 71.4564 23.0955 69.6659 19.3353C67.8753 15.5751 66.4205 14.5232 65.6371 14.5232C62.9513 13.9636 62.2798 23.5879 63.7347 25.1546C65.1895 26.7214 65.9729 24.2593 65.9729 21.6854C65.9729 19.6263 66.9428 20.8274 67.4277 21.6854C67.6515 22.1331 68.5468 23.4536 70.3373 25.1546ZM53.9556 19.9012C54.627 18.4464 55.4104 17.105 56.5295 17.105C57.089 16.9807 58.7562 19.451 60.1106 22.7005C60.5961 23.2286 61.1489 23.4007 61.5577 23.528L61.5577 23.5281C61.7477 23.5872 61.9065 23.6367 62.0131 23.7077C62.5726 24.4911 62.7964 25.6102 62.3488 25.9459C61.9907 26.2145 61.9758 27.4753 62.0131 28.0722C62.0131 28.8556 61.7892 30.4447 60.894 30.5342C60.0582 30.6178 59.8466 29.9523 59.5599 29.0505L59.5599 29.0504C59.4627 28.7448 59.357 28.4121 59.2153 28.0722C58.6879 26.8063 57.3648 27.032 56.09 27.2496C56.0124 27.2628 55.935 27.276 55.858 27.2888C54.753 27.473 54.1026 28.0361 53.1586 28.8533C52.9554 29.0292 52.7386 29.2169 52.5007 29.4151C51.4264 30.3104 50.3745 29.1913 50.7102 28.2945C49.703 27.8484 49.9035 27.3315 50.4864 26.6174C50.6223 26.4508 50.7313 26.3255 50.8238 26.2194L50.8238 26.2193C51.1038 25.8976 51.2313 25.7512 51.4936 25.161C52.0699 23.8642 52.6817 22.5834 53.2008 21.4967L53.2009 21.4963C53.4881 20.8952 53.7469 20.3535 53.9556 19.9012ZM54.6273 24.939C54.2692 24.8495 55.448 22.8127 56.0822 21.8055C56.6417 22.4397 57.7384 23.7975 57.6489 24.1556C57.537 24.6033 55.075 25.0509 54.6273 24.939ZM40.7175 14.7492C40.0908 12.0633 42.1723 12.399 43.0676 13.5181C43.5308 13.9556 44.0057 14.6533 44.4885 15.3624C46.1053 17.7374 47.8091 20.2401 49.4465 13.5181C49.7822 12.6602 50.7446 10.7428 51.9085 9.93703C55.6015 7.13929 56.1611 10.2728 54.2586 11.9514C50.2362 15.8824 49.4997 20.7842 48.7548 25.7417V25.7418L48.7547 25.7419C48.5878 26.8531 48.4204 27.9671 48.2155 29.0736C47.0964 35.1167 45.3058 28.1783 46.2011 24.1496C46.9173 20.9266 46.2011 20.3446 45.7535 20.4566C44.3359 19.6732 41.3442 17.435 40.7175 14.7492ZM31.425 13.7655C30.6043 13.5417 28.784 14.907 28.0677 22.1588C28.0677 25.1803 28.2915 27.7543 29.4106 28.4257C30.5297 29.0972 30.9774 27.3066 30.9774 25.2922C30.9774 23.2779 31.425 19.1372 32.3203 23.3898C33.4464 28.7389 36.2371 27.7543 37.3562 23.3898C38.4753 19.0253 39.0349 22.6064 39.2587 24.5089C39.4825 26.4113 41.385 29.7686 42.0564 25.9637C42.5936 22.9198 41.4596 18.9507 40.8254 17.3467C40.0421 16.041 38.0725 14.2132 36.461 17.3467C36.3137 17.7464 36.1625 18.2331 36.011 18.7206C35.3568 20.8263 34.6982 22.9462 34.3347 18.13C34.0362 16.6752 33.0365 13.7655 31.425 13.7655ZM20.2707 17.105C19.1516 17.105 18.3683 18.4464 17.6968 19.9012C17.4881 20.3535 17.2293 20.8952 16.9422 21.4963C16.4231 22.5831 15.8112 23.864 15.2348 25.161C14.9725 25.7512 14.845 25.8976 14.565 26.2193L14.565 26.2194L14.5649 26.2195C14.4725 26.3256 14.3635 26.4508 14.2276 26.6174C13.6448 27.3315 13.4442 27.8484 14.4514 28.2945C14.1157 29.1913 15.1676 30.3104 16.242 29.4151C16.4798 29.2169 16.6966 29.0292 16.8998 28.8533C17.8438 28.0361 18.4942 27.473 19.5993 27.2888C19.6763 27.276 19.7536 27.2628 19.8312 27.2496C21.1061 27.032 22.4291 26.8063 22.9566 28.0722C23.0982 28.4121 23.204 28.7449 23.3011 29.0505C23.5878 29.9523 23.7994 30.6178 24.6352 30.5342C25.5305 30.4447 25.7543 28.8556 25.7543 28.0722C25.717 27.4753 25.7319 26.2145 26.09 25.9459C26.5377 25.6102 26.3138 24.4911 25.7543 23.7077C25.6478 23.6367 25.4889 23.5872 25.2989 23.5281L25.2989 23.528L25.2989 23.528C24.8901 23.4007 24.3373 23.2286 23.8518 22.7005C22.4974 19.451 20.8303 16.9807 20.2707 17.105ZM19.8234 21.8055C19.1893 22.8127 18.0105 24.8495 18.3686 24.939C18.8162 25.0509 21.2782 24.6033 21.3902 24.1556C21.4797 23.7975 20.383 22.4397 19.8234 21.8055ZM9.52027 11.572C8.48453 12.056 7.27412 12.6215 5.81768 13.1973C3.69139 14.4283 0.714592 17.3604 5.81768 19.2405C12.1965 21.5906 11.7489 22.3739 10.0702 23.2692C8.72733 23.9854 6.45183 25.1344 5.48195 25.6193C4.28824 25.955 2.39323 26.9175 4.36284 28.0813C6.33245 29.2452 10.1075 27.5964 11.7489 26.6265C13.5768 25.1344 16.2253 21.4115 12.1965 18.4571C10.7641 17.6513 9.5107 17.0769 9.06306 16.8904C8.24239 16.7038 7.29488 16.0175 10.0702 14.7641C10.5526 14.5463 11.0024 14.3522 11.4181 14.173C13.9919 13.0629 15.2522 12.5193 14.7705 10.3996C13.3658 9.77528 11.9066 10.457 9.52027 11.572Z"/>
</mask>
<path fill-rule="evenodd" clip-rule="evenodd" d="M89.7578 3C87.1465 3.78337 82.036 6.24538 82.4836 9.8265C82.9313 13.4076 85.6544 13.2584 86.96 12.7361C87.2211 12.5496 87.5867 11.9975 86.96 11.2813C86.6784 10.9595 86.2667 10.7244 85.8704 10.4982C85.1641 10.095 84.5068 9.71972 84.7218 8.93122C84.9904 7.94641 86.7735 9.11773 87.6315 9.8265C88.3775 10.9829 89.4628 12.3195 89.0863 8.93122C88.7823 6.19539 89.2123 6.12016 89.6286 6.04733C89.6721 6.03973 89.7154 6.03215 89.7578 6.02156C90.4861 5.83949 90.5411 7.70021 90.5411 8.7074C90.5411 9.24451 90.4874 9.6384 90.4445 9.95353L90.4445 9.95362C90.38 10.4263 90.3397 10.7218 90.5411 11.0575C90.7251 11.3642 91.1148 10.8554 91.6815 10.1153C91.9079 9.81971 92.1625 9.48722 92.4436 9.15504C93.4284 7.99118 94.4207 8.22246 94.7937 8.48358C95.0921 8.63279 95.5201 9.57023 93.7865 10.386C91.8841 11.2813 92.3317 12.0647 92.3317 12.0647C92.3317 12.0647 92.5331 13.43 94.2342 13.0719C95.9352 12.7138 96.7335 11.1321 96.92 10.386C97.1438 9.71459 97.0319 7.8345 94.7937 5.68583C92.5555 3.53717 90.5038 3 89.7578 3ZM85.7514 18.2873C86.8101 18.5324 87.2253 18.6286 86.3882 15.5313C83.9262 14.6338 78.2604 16.5057 76.764 20.4531C75.9735 22.538 75.4553 24.3574 76.764 26.1628C78.1273 28.0436 82.4714 27.8391 82.4714 27.8391C82.4714 27.8391 84.7 27.5034 84.15 29.5201C83.8143 30.7511 85.381 32.3178 86.3882 29.8558C86.6851 29.1301 86.9819 28.3558 87.2645 27.6188L87.2647 27.6183C87.9407 25.8552 88.5346 24.3062 88.8502 24.1484C89.2083 23.9693 89.4471 23.0293 89.5217 22.5816C89.2606 21.7237 87.664 20.3211 83.3666 21.5745C77.8831 24.4841 83.5905 23.9223 83.5905 23.9223C83.5905 23.9223 85.1166 23.4729 85.6048 23.6984C86.1248 23.9386 85.6863 25.0953 84.4857 25.6032C82.158 26.588 79.1389 25.6032 78.8902 24.4841C78.037 20.6444 82.368 18.9394 84.2296 18.2066C84.3213 18.1705 84.407 18.1368 84.4857 18.1052C84.9651 18.1052 85.3948 18.2047 85.7514 18.2873ZM70.3373 25.1546C75.3733 30.0786 75.2614 16.0899 74.5899 12.285C74.105 11.054 72.9336 9.46487 72.1279 12.9565C71.3221 16.448 71.3445 18.8877 71.4564 19.671C71.6056 21.1259 71.4564 23.0955 69.6659 19.3353C67.8753 15.5751 66.4205 14.5232 65.6371 14.5232C62.9513 13.9636 62.2798 23.5879 63.7347 25.1546C65.1895 26.7214 65.9729 24.2593 65.9729 21.6854C65.9729 19.6263 66.9428 20.8274 67.4277 21.6854C67.6515 22.1331 68.5468 23.4536 70.3373 25.1546ZM53.9556 19.9012C54.627 18.4464 55.4104 17.105 56.5295 17.105C57.089 16.9807 58.7562 19.451 60.1106 22.7005C60.5961 23.2286 61.1489 23.4007 61.5577 23.528L61.5577 23.5281C61.7477 23.5872 61.9065 23.6367 62.0131 23.7077C62.5726 24.4911 62.7964 25.6102 62.3488 25.9459C61.9907 26.2145 61.9758 27.4753 62.0131 28.0722C62.0131 28.8556 61.7892 30.4447 60.894 30.5342C60.0582 30.6178 59.8466 29.9523 59.5599 29.0505L59.5599 29.0504C59.4627 28.7448 59.357 28.4121 59.2153 28.0722C58.6879 26.8063 57.3648 27.032 56.09 27.2496C56.0124 27.2628 55.935 27.276 55.858 27.2888C54.753 27.473 54.1026 28.0361 53.1586 28.8533C52.9554 29.0292 52.7386 29.2169 52.5007 29.4151C51.4264 30.3104 50.3745 29.1913 50.7102 28.2945C49.703 27.8484 49.9035 27.3315 50.4864 26.6174C50.6223 26.4508 50.7313 26.3255 50.8238 26.2194L50.8238 26.2193C51.1038 25.8976 51.2313 25.7512 51.4936 25.161C52.0699 23.8642 52.6817 22.5834 53.2008 21.4967L53.2009 21.4963C53.4881 20.8952 53.7469 20.3535 53.9556 19.9012ZM54.6273 24.939C54.2692 24.8495 55.448 22.8127 56.0822 21.8055C56.6417 22.4397 57.7384 23.7975 57.6489 24.1556C57.537 24.6033 55.075 25.0509 54.6273 24.939ZM40.7175 14.7492C40.0908 12.0633 42.1723 12.399 43.0676 13.5181C43.5308 13.9556 44.0057 14.6533 44.4885 15.3624C46.1053 17.7374 47.8091 20.2401 49.4465 13.5181C49.7822 12.6602 50.7446 10.7428 51.9085 9.93703C55.6015 7.13929 56.1611 10.2728 54.2586 11.9514C50.2362 15.8824 49.4997 20.7842 48.7548 25.7417V25.7418L48.7547 25.7419C48.5878 26.8531 48.4204 27.9671 48.2155 29.0736C47.0964 35.1167 45.3058 28.1783 46.2011 24.1496C46.9173 20.9266 46.2011 20.3446 45.7535 20.4566C44.3359 19.6732 41.3442 17.435 40.7175 14.7492ZM31.425 13.7655C30.6043 13.5417 28.784 14.907 28.0677 22.1588C28.0677 25.1803 28.2915 27.7543 29.4106 28.4257C30.5297 29.0972 30.9774 27.3066 30.9774 25.2922C30.9774 23.2779 31.425 19.1372 32.3203 23.3898C33.4464 28.7389 36.2371 27.7543 37.3562 23.3898C38.4753 19.0253 39.0349 22.6064 39.2587 24.5089C39.4825 26.4113 41.385 29.7686 42.0564 25.9637C42.5936 22.9198 41.4596 18.9507 40.8254 17.3467C40.0421 16.041 38.0725 14.2132 36.461 17.3467C36.3137 17.7464 36.1625 18.2331 36.011 18.7206C35.3568 20.8263 34.6982 22.9462 34.3347 18.13C34.0362 16.6752 33.0365 13.7655 31.425 13.7655ZM20.2707 17.105C19.1516 17.105 18.3683 18.4464 17.6968 19.9012C17.4881 20.3535 17.2293 20.8952 16.9422 21.4963C16.4231 22.5831 15.8112 23.864 15.2348 25.161C14.9725 25.7512 14.845 25.8976 14.565 26.2193L14.565 26.2194L14.5649 26.2195C14.4725 26.3256 14.3635 26.4508 14.2276 26.6174C13.6448 27.3315 13.4442 27.8484 14.4514 28.2945C14.1157 29.1913 15.1676 30.3104 16.242 29.4151C16.4798 29.2169 16.6966 29.0292 16.8998 28.8533C17.8438 28.0361 18.4942 27.473 19.5993 27.2888C19.6763 27.276 19.7536 27.2628 19.8312 27.2496C21.1061 27.032 22.4291 26.8063 22.9566 28.0722C23.0982 28.4121 23.204 28.7449 23.3011 29.0505C23.5878 29.9523 23.7994 30.6178 24.6352 30.5342C25.5305 30.4447 25.7543 28.8556 25.7543 28.0722C25.717 27.4753 25.7319 26.2145 26.09 25.9459C26.5377 25.6102 26.3138 24.4911 25.7543 23.7077C25.6478 23.6367 25.4889 23.5872 25.2989 23.5281L25.2989 23.528L25.2989 23.528C24.8901 23.4007 24.3373 23.2286 23.8518 22.7005C22.4974 19.451 20.8303 16.9807 20.2707 17.105ZM19.8234 21.8055C19.1893 22.8127 18.0105 24.8495 18.3686 24.939C18.8162 25.0509 21.2782 24.6033 21.3902 24.1556C21.4797 23.7975 20.383 22.4397 19.8234 21.8055ZM9.52027 11.572C8.48453 12.056 7.27412 12.6215 5.81768 13.1973C3.69139 14.4283 0.714592 17.3604 5.81768 19.2405C12.1965 21.5906 11.7489 22.3739 10.0702 23.2692C8.72733 23.9854 6.45183 25.1344 5.48195 25.6193C4.28824 25.955 2.39323 26.9175 4.36284 28.0813C6.33245 29.2452 10.1075 27.5964 11.7489 26.6265C13.5768 25.1344 16.2253 21.4115 12.1965 18.4571C10.7641 17.6513 9.5107 17.0769 9.06306 16.8904C8.24239 16.7038 7.29488 16.0175 10.0702 14.7641C10.5526 14.5463 11.0024 14.3522 11.4181 14.173C13.9919 13.0629 15.2522 12.5193 14.7705 10.3996C13.3658 9.77528 11.9066 10.457 9.52027 11.572Z" fill="#FF6B00"/>
<path d="M82.4836 9.8265L79.5068 10.1986L82.4836 9.8265ZM89.7578 3V0H89.3175L88.8957 0.126522L89.7578 3ZM86.96 12.7361L88.0742 15.5216L88.4097 15.3874L88.7038 15.1773L86.96 12.7361ZM86.96 11.2813L89.2178 9.30581V9.30581L86.96 11.2813ZM85.8704 10.4982L84.383 13.1035L84.383 13.1035L85.8704 10.4982ZM84.7218 8.93122L87.6161 9.72058V9.72057L84.7218 8.93122ZM87.6315 9.8265L90.1524 8.20012L89.9004 7.8096L89.5421 7.51361L87.6315 9.8265ZM89.0863 8.93122L92.068 8.59992V8.59992L89.0863 8.93122ZM89.6286 6.04733L89.1116 3.09221V3.09221L89.6286 6.04733ZM89.7578 6.02156L89.0302 3.11114L89.0301 3.11115L89.7578 6.02156ZM90.4445 9.95353L93.3669 10.6312L93.3982 10.4961L93.417 10.3588L90.4445 9.95353ZM90.4445 9.95362L87.522 9.27595L87.4907 9.41096L87.472 9.54828L90.4445 9.95362ZM90.5411 11.0575L93.1136 9.51403L93.1136 9.51401L90.5411 11.0575ZM91.6815 10.1153L89.2997 8.2913L89.2997 8.2913L91.6815 10.1153ZM92.4436 9.15504L94.7338 11.0929L92.4436 9.15504ZM94.7937 8.48358L93.0733 10.9413L93.2544 11.068L93.4521 11.1669L94.7937 8.48358ZM93.7865 10.386L95.0639 13.1005V13.1005L93.7865 10.386ZM92.3317 12.0647L95.2996 11.6268L95.217 11.0673L94.9364 10.5763L92.3317 12.0647ZM94.2342 13.0719L93.6161 10.1362L94.2342 13.0719ZM96.92 10.386L94.0739 9.43737L94.0375 9.54666L94.0096 9.65841L96.92 10.386ZM94.7937 5.68583L92.7161 7.85L94.7937 5.68583ZM86.3882 15.5313L89.2843 14.7486L88.8782 13.246L87.4158 12.7128L86.3882 15.5313ZM85.7514 18.2873L85.0747 21.21H85.0747L85.7514 18.2873ZM76.764 20.4531L79.5691 21.5165L76.764 20.4531ZM76.764 26.1628L74.335 27.9235V27.9235L76.764 26.1628ZM82.4714 27.8391L82.6124 30.8358L82.7661 30.8286L82.9183 30.8056L82.4714 27.8391ZM84.15 29.5201L87.0443 30.3094L87.0443 30.3094L84.15 29.5201ZM86.3882 29.8558L83.6116 28.7199V28.7199L86.3882 29.8558ZM87.2645 27.6188L84.4753 26.5142L84.4692 26.5295L84.4633 26.5449L87.2645 27.6188ZM87.2647 27.6183L90.0539 28.7229L90.06 28.7076L90.0659 28.6922L87.2647 27.6183ZM88.8502 24.1484L90.1919 26.8317L90.1919 26.8316L88.8502 24.1484ZM89.5217 22.5816L92.4809 23.0748L92.5965 22.381L92.3917 21.7082L89.5217 22.5816ZM83.3666 21.5745L82.5266 18.6945L82.2318 18.7804L81.9605 18.9244L83.3666 21.5745ZM83.5905 23.9223L83.8844 26.9078L84.1661 26.8801L84.4377 26.8001L83.5905 23.9223ZM85.6048 23.6984L84.3467 26.4219L84.3468 26.4219L85.6048 23.6984ZM84.4857 25.6032L85.6547 28.3661V28.3661L84.4857 25.6032ZM78.8902 24.4841L81.8188 23.8333V23.8333L78.8902 24.4841ZM84.2296 18.2066L85.3285 20.998L85.3286 20.998L84.2296 18.2066ZM84.4857 18.1052V15.1052H83.908L83.3716 15.3198L84.4857 18.1052ZM74.5899 12.285L77.5443 11.7636L77.4918 11.4663L77.3811 11.1854L74.5899 12.285ZM70.3373 25.1546L72.4347 23.0096L72.4193 22.9945L72.4036 22.9796L70.3373 25.1546ZM72.1279 12.9565L75.0511 13.631L72.1279 12.9565ZM71.4564 19.671L74.4408 19.365L74.4347 19.3057L74.4263 19.2468L71.4564 19.671ZM69.6659 19.3353L72.3745 18.0455L72.3745 18.0455L69.6659 19.3353ZM65.6371 14.5232L65.0253 17.4601L65.3279 17.5232H65.6371V14.5232ZM67.4277 21.6854L70.111 20.3438L70.0769 20.2756L70.0394 20.2092L67.4277 21.6854ZM56.5295 17.105V20.105H56.8588L57.1803 20.0336L56.5295 17.105ZM53.9556 19.9012L51.2317 18.6441L51.2317 18.6441L53.9556 19.9012ZM60.1106 22.7005L57.3415 23.8547L57.5447 24.3422L57.9021 24.7309L60.1106 22.7005ZM61.5577 23.528L62.5063 20.682L62.4781 20.6726L62.4497 20.6637L61.5577 23.528ZM61.5577 23.5281L60.609 26.3741L60.6372 26.3835L60.6657 26.3924L61.5577 23.5281ZM62.0131 23.7077L64.4543 21.964L64.1347 21.5166L63.6772 21.2116L62.0131 23.7077ZM62.3488 25.9459L64.1488 28.3459L64.1488 28.3459L62.3488 25.9459ZM62.0131 28.0722H65.0131V27.9785L65.0072 27.8851L62.0131 28.0722ZM60.894 30.5342L61.1925 33.5193L60.894 30.5342ZM59.5599 29.0505L62.4189 28.1416L62.4003 28.083L62.3793 28.0253L59.5599 29.0505ZM59.5599 29.0504L56.7009 29.9593L56.7195 30.0179L56.7405 30.0757L59.5599 29.0504ZM59.2153 28.0722L61.9846 26.9184L61.9846 26.9183L59.2153 28.0722ZM56.09 27.2496L56.5945 30.2068L56.5945 30.2068L56.09 27.2496ZM55.858 27.2888L56.3512 30.248L56.3513 30.248L55.858 27.2888ZM53.1586 28.8533L51.195 26.5852L51.195 26.5852L53.1586 28.8533ZM52.5007 29.4151L50.5802 27.1104L50.5802 27.1104L52.5007 29.4151ZM50.7102 28.2945L53.5198 29.3463L54.5115 26.697L51.9251 25.5515L50.7102 28.2945ZM50.4864 26.6174L52.8105 28.5143L52.8106 28.5142L50.4864 26.6174ZM50.8238 26.2194L53.0866 28.189L53.2131 28.0437L53.3199 27.8835L50.8238 26.2194ZM50.8238 26.2193L48.5609 24.2497L48.4344 24.395L48.3276 24.5552L50.8238 26.2193ZM51.4936 25.161L48.7521 23.9426V23.9426L51.4936 25.161ZM53.2008 21.4967L55.9078 22.7897L55.9149 22.7749L55.9218 22.76L53.2008 21.4967ZM53.2009 21.4963L50.4939 20.2033L50.4868 20.2181L50.4799 20.233L53.2009 21.4963ZM56.0822 21.8055L58.3317 19.8207L55.6794 16.8147L53.5435 20.2071L56.0822 21.8055ZM54.6273 24.939L53.8997 27.8494H53.8997L54.6273 24.939ZM57.6489 24.1556L60.5593 24.8833L60.5593 24.8832L57.6489 24.1556ZM43.0676 13.5181L40.725 15.3922L40.8557 15.5556L41.0077 15.6992L43.0676 13.5181ZM44.4885 15.3624L46.9684 13.6742L46.9684 13.6742L44.4885 15.3624ZM49.4465 13.5181L46.6528 12.4249L46.5794 12.6125L46.5317 12.8081L49.4465 13.5181ZM51.9085 9.93703L53.6161 12.4036L53.6689 12.3671L53.7201 12.3283L51.9085 9.93703ZM54.2586 11.9514L52.2737 9.7019L52.2164 9.75245L52.1618 9.80585L54.2586 11.9514ZM48.7548 25.7417L45.7881 25.296L45.7548 25.5176V25.7417H48.7548ZM48.7548 25.7418L51.7342 26.0923L51.7548 25.9176V25.7418H48.7548ZM48.7547 25.7419L51.7214 26.1876L51.7286 26.1401L51.7342 26.0924L48.7547 25.7419ZM48.2155 29.0736L51.1653 29.6199L51.1653 29.6199L48.2155 29.0736ZM46.2011 24.1496L49.1297 24.8004L46.2011 24.1496ZM45.7535 20.4566L44.3024 23.0823L45.3357 23.6533L46.4811 23.367L45.7535 20.4566ZM28.0677 22.1588L25.0823 21.8639L25.0677 22.011V22.1588H28.0677ZM31.425 13.7655L30.6357 16.6598L31.0233 16.7655H31.425V13.7655ZM29.4106 28.4257L27.8672 30.9982L27.8672 30.9982L29.4106 28.4257ZM32.3203 23.3898L35.2559 22.7718V22.7717L32.3203 23.3898ZM37.3562 23.3898L40.2622 24.1349V24.1349L37.3562 23.3898ZM39.2587 24.5089L42.2382 24.1584L42.2382 24.1584L39.2587 24.5089ZM42.0564 25.9637L45.0108 26.4851L42.0564 25.9637ZM40.8254 17.3467L43.6153 16.2437L43.5247 16.0145L43.3979 15.8032L40.8254 17.3467ZM36.461 17.3467L33.7931 15.9746L33.7093 16.1376L33.6459 16.3095L36.461 17.3467ZM36.011 18.7206L33.1461 17.8305L33.1461 17.8305L36.011 18.7206ZM34.3347 18.13L37.3262 17.9043L37.3118 17.714L37.2735 17.5272L34.3347 18.13ZM17.6968 19.9012L14.9729 18.6441L14.9729 18.6441L17.6968 19.9012ZM20.2707 17.105V20.105H20.6L20.9215 20.0336L20.2707 17.105ZM16.9422 21.4963L14.2351 20.2033L14.2351 20.2033L16.9422 21.4963ZM15.2348 25.161L12.4933 23.9426L12.4933 23.9426L15.2348 25.161ZM14.565 26.2193L12.3021 24.2497L12.281 24.274L12.2603 24.2988L14.565 26.2193ZM14.565 26.2194L16.8475 28.1662L16.8586 28.1531L16.8696 28.1399L14.565 26.2194ZM14.5649 26.2195L16.8278 28.189L16.8377 28.1777L16.8474 28.1663L14.5649 26.2195ZM14.2276 26.6174L11.9034 24.7205L11.9034 24.7205L14.2276 26.6174ZM14.4514 28.2945L17.261 29.3463L18.2527 26.697L15.6663 25.5515L14.4514 28.2945ZM16.242 29.4151L14.3214 27.1104H14.3214L16.242 29.4151ZM16.8998 28.8533L14.9363 26.5852L14.9363 26.5852L16.8998 28.8533ZM19.5993 27.2888L20.0925 30.248L20.0925 30.248L19.5993 27.2888ZM19.8312 27.2496L20.3358 30.2068L20.3358 30.2068L19.8312 27.2496ZM22.9566 28.0722L25.7258 26.9183L25.7258 26.9183L22.9566 28.0722ZM23.3011 29.0505L26.1601 28.1416L26.1601 28.1416L23.3011 29.0505ZM24.6352 30.5342L24.3367 27.5491L24.6352 30.5342ZM25.7543 28.0722H28.7543V27.9785L28.7485 27.8851L25.7543 28.0722ZM26.09 25.9459L24.29 23.5459L24.29 23.5459L26.09 25.9459ZM25.7543 23.7077L28.1955 21.964L27.8759 21.5166L27.4184 21.2116L25.7543 23.7077ZM25.2989 23.5281L24.3503 26.3741L24.3785 26.3835L24.4069 26.3924L25.2989 23.5281ZM25.2989 23.528L26.2476 20.682L26.1383 20.6456L26.0265 20.6176L25.2989 23.528ZM25.2989 23.528L24.4069 26.3924L24.4884 26.4178L24.5713 26.4385L25.2989 23.528ZM23.8518 22.7005L21.0827 23.8547L21.2859 24.3422L21.6433 24.7309L23.8518 22.7005ZM18.3686 24.939L17.641 27.8494L17.641 27.8494L18.3686 24.939ZM19.8234 21.8055L22.0729 19.8207L19.4206 16.8147L17.2847 20.2071L19.8234 21.8055ZM21.3902 24.1556L24.3006 24.8832L24.3006 24.8832L21.3902 24.1556ZM5.81768 13.1973L4.7147 10.4075L4.50744 10.4894L4.31457 10.6011L5.81768 13.1973ZM9.52027 11.572L8.25034 8.85409L8.25033 8.85409L9.52027 11.572ZM5.81768 19.2405L6.85479 16.4254L5.81768 19.2405ZM10.0702 23.2692L8.65848 20.6222L8.65848 20.6222L10.0702 23.2692ZM5.48195 25.6193L6.29418 28.5073L6.56861 28.4301L6.82359 28.3026L5.48195 25.6193ZM4.36284 28.0813L2.83665 30.6641H2.83665L4.36284 28.0813ZM11.7489 26.6265L13.2751 29.2093L13.4703 29.0939L13.646 28.9505L11.7489 26.6265ZM12.1965 18.4571L13.9706 16.0379L13.8249 15.931L13.6673 15.8424L12.1965 18.4571ZM9.06306 16.8904L10.2169 14.1211L9.97912 14.0221L9.72792 13.965L9.06306 16.8904ZM10.0702 14.7641L8.83548 12.03H8.83548L10.0702 14.7641ZM11.4181 14.173L10.23 11.4183H10.23L11.4181 14.173ZM14.7705 10.3996L17.6959 9.73473L17.3627 8.26872L15.9889 7.65815L14.7705 10.3996ZM85.4605 9.45439C85.4439 9.32148 85.4727 8.73978 86.7736 7.76409C87.9618 6.87298 89.5449 6.19595 90.6198 5.87348L88.8957 0.126522C87.3594 0.587417 85.0816 1.53307 83.1736 2.96409C81.3784 4.31053 79.0758 6.7504 79.5068 10.1986L85.4605 9.45439ZM85.8459 9.95072C85.7876 9.97404 85.6764 10.0048 85.5615 10.0129C85.4482 10.0209 85.427 10.0008 85.4741 10.0189C85.502 10.0296 85.5404 10.0491 85.5796 10.0792C85.5983 10.0935 85.6135 10.1075 85.625 10.1195C85.6306 10.1254 85.6348 10.1303 85.6378 10.1338C85.6407 10.1374 85.6421 10.1394 85.6421 10.1394C85.6421 10.1394 85.6405 10.1371 85.6376 10.1322C85.6346 10.1273 85.6302 10.1195 85.6245 10.1085C85.6133 10.0864 85.5969 10.0505 85.5781 9.99751C85.5402 9.89076 85.4932 9.71645 85.4605 9.45439L79.5068 10.1986C79.8369 12.8394 81.1776 14.7975 83.3261 15.6212C85.1646 16.3261 86.9926 15.9542 88.0742 15.5216L85.8459 9.95072ZM84.7023 13.2568C84.5374 13.0684 84.1923 12.4887 84.3415 11.6697C84.4623 11.0068 84.8445 10.5605 85.2163 10.295L88.7038 15.1773C89.3367 14.7252 90.0322 13.9097 90.2444 12.745C90.485 11.4243 90.0093 10.2105 89.2178 9.30581L84.7023 13.2568ZM84.383 13.1035C84.4862 13.1624 84.5614 13.2055 84.6316 13.2473C84.6995 13.2878 84.7442 13.3163 84.7744 13.3368C84.8045 13.3572 84.8093 13.3624 84.7981 13.3529C84.7866 13.3433 84.7504 13.3119 84.7023 13.2568L89.2178 9.30581C88.5411 8.53253 87.6458 8.0573 87.3577 7.89284L84.383 13.1035ZM81.8275 8.14185C81.6503 8.79156 81.6155 9.51783 81.8212 10.2566C82.0222 10.9789 82.3997 11.5214 82.7536 11.902C83.356 12.5499 84.1532 12.9723 84.383 13.1035L87.3577 7.89285C87.163 7.78166 87.0781 7.73189 87.0174 7.69174C86.9578 7.65232 87.0332 7.69333 87.1477 7.81641C87.2758 7.95419 87.4851 8.22986 87.6013 8.6474C87.7222 9.08145 87.6858 9.46512 87.6161 9.72058L81.8275 8.14185ZM89.5421 7.51361C89.0191 7.08151 88.1142 6.41632 87.1647 5.99821C86.7487 5.815 85.9097 5.48653 84.928 5.56567C84.3725 5.61046 83.6645 5.79603 83.0161 6.31417C82.3556 6.84193 81.9962 7.52357 81.8275 8.14186L87.6161 9.72057C87.5146 10.0927 87.2697 10.5955 86.7615 11.0016C86.2653 11.398 85.7474 11.5191 85.4102 11.5463C85.0939 11.5718 84.8757 11.5224 84.8101 11.5061C84.7324 11.4868 84.7083 11.4725 84.7465 11.4893C84.9703 11.5879 85.3859 11.8627 85.7208 12.1394L89.5421 7.51361ZM86.1047 9.26251C86.1938 10.0645 86.1488 10.2493 86.171 10.1274C86.1768 10.0951 86.2591 9.57273 86.7282 9.03536C86.9967 8.72787 87.3893 8.42124 87.9116 8.24067C88.4298 8.06149 88.9154 8.06171 89.2934 8.12738C89.9558 8.24247 90.3458 8.56416 90.4007 8.60833C90.5066 8.69369 90.5432 8.74413 90.5073 8.70215C90.4383 8.62141 90.3166 8.4547 90.1524 8.20012L85.1106 11.4529C85.3194 11.7765 85.6131 12.2105 85.9457 12.5997C86.1106 12.7927 86.3444 13.0455 86.6372 13.2813C86.8788 13.4759 87.4452 13.8962 88.2663 14.0388C89.3436 14.226 90.4775 13.864 91.2481 12.9814C91.8339 12.3104 92.0082 11.5643 92.0745 11.1989C92.2175 10.4108 92.1671 9.49211 92.068 8.59992L86.1047 9.26251ZM89.1116 3.09221C89.0947 3.09517 88.3902 3.18211 87.7119 3.61486C86.9046 4.12995 86.4607 4.87429 86.2373 5.55417C85.8883 6.6163 85.9562 7.92644 86.1047 9.26252L92.068 8.59992C91.9993 7.98211 91.9817 7.59519 91.9841 7.36773C91.9868 7.11131 92.0146 7.19241 91.9374 7.42713C91.8356 7.73712 91.5582 8.27802 90.9391 8.67302C90.4491 8.98568 89.9544 9.03591 90.1456 9.00245L89.1116 3.09221ZM89.0301 3.11115C89.0776 3.09928 89.1121 3.09243 89.1241 3.09012C89.1305 3.08888 89.1336 3.08835 89.1311 3.08879C89.1279 3.08936 89.1236 3.09012 89.1116 3.09221L90.1456 9.00245C90.1705 8.99809 90.3209 8.97312 90.4854 8.93198L89.0301 3.11115ZM93.5411 8.7074C93.5411 8.20801 93.5328 7.24207 93.3728 6.37444C93.3018 5.98948 93.1418 5.25947 92.6985 4.58132C92.4579 4.21329 92.0321 3.70331 91.3367 3.35736C90.5783 2.9801 89.7602 2.92864 89.0302 3.11114L90.4854 8.93199C89.9374 9.06897 89.2804 9.03583 88.6644 8.72941C88.1114 8.4543 87.8093 8.06769 87.6763 7.86424C87.4482 7.51523 87.4385 7.27921 87.4723 7.46257C87.5219 7.73158 87.5411 8.1996 87.5411 8.7074H93.5411ZM93.417 10.3588C93.4632 10.0198 93.5411 9.45843 93.5411 8.7074H87.5411C87.5411 9.03059 87.5117 9.25698 87.472 9.54828L93.417 10.3588ZM93.3669 10.6313L93.3669 10.6312L87.522 9.27585L87.522 9.27595L93.3669 10.6313ZM93.1136 9.51401C93.1897 9.64078 93.2633 9.79965 93.3163 9.98473C93.3686 10.1677 93.3862 10.3255 93.3906 10.4361C93.3947 10.5365 93.3875 10.5936 93.3899 10.5695C93.3929 10.5383 93.3989 10.4914 93.4169 10.359L87.472 9.54828C87.4292 9.8621 87.1453 11.2288 87.9687 12.601L93.1136 9.51401ZM89.2997 8.2913C88.9455 8.75389 88.8783 8.826 88.9035 8.80213C88.9314 8.77558 89.0226 8.69095 89.1695 8.59301C89.3027 8.50419 89.6074 8.3191 90.0547 8.21782C90.5521 8.10518 91.2258 8.1011 91.91 8.42706C92.5598 8.73662 92.929 9.20627 93.1136 9.51403L87.9687 12.601C88.1993 12.9854 88.6209 13.5062 89.3295 13.8438C90.0724 14.1977 90.8111 14.1984 91.3798 14.0697C92.3001 13.8613 92.8887 13.2918 93.0321 13.1557C93.4398 12.7691 93.8508 12.2168 94.0633 11.9393L89.2997 8.2913ZM90.1534 7.21721C89.8182 7.61337 89.5212 8.00205 89.2997 8.2913L94.0633 11.9393C94.2946 11.6374 94.5068 11.3611 94.7338 11.0929L90.1534 7.21721ZM96.5141 6.02589C95.7309 5.47766 94.6395 5.1548 93.4564 5.31062C92.1896 5.47745 91.0515 6.15588 90.1534 7.21721L94.7338 11.0929C94.8205 10.9903 94.6709 11.2025 94.2398 11.2593C93.8922 11.305 93.4835 11.2284 93.0733 10.9413L96.5141 6.02589ZM95.0639 13.1005C96.3205 12.5092 97.6464 11.4772 97.9916 9.78433C98.3062 8.24164 97.6233 6.54428 96.1354 5.8003L93.4521 11.1669C92.7686 10.8251 92.4286 10.3102 92.2726 9.96533C92.0807 9.54105 92.0165 9.0568 92.1126 8.58534C92.3131 7.60244 92.9862 7.44709 92.5091 7.67159L95.0639 13.1005ZM92.3317 12.0647C94.9364 10.5763 94.9381 10.5792 94.9398 10.5822C94.9404 10.5832 94.942 10.5861 94.9432 10.5881C94.9454 10.5921 94.9476 10.5961 94.9499 10.6C94.9543 10.608 94.9587 10.616 94.9631 10.624C94.9719 10.6401 94.9807 10.6564 94.9893 10.6729C95.0065 10.7058 95.0233 10.7395 95.0396 10.7741C95.0722 10.8431 95.1033 10.9162 95.1317 10.9934C95.1883 11.1475 95.2357 11.3213 95.2625 11.5124C95.3191 11.9165 95.2728 12.3292 95.1223 12.697C94.8378 13.3925 94.4153 13.4057 95.0639 13.1005L92.5091 7.67159C91.2553 8.26164 90.1054 9.11421 89.569 10.4252C89.2927 11.1007 89.2394 11.7653 89.3204 12.3442C89.3594 12.6228 89.427 12.8647 89.5007 13.0652C89.5376 13.1655 89.5764 13.2563 89.6147 13.3373C89.6338 13.3778 89.6529 13.416 89.6717 13.452C89.6811 13.4699 89.6904 13.4873 89.6996 13.5042C89.7042 13.5126 89.7088 13.5209 89.7134 13.5291C89.7157 13.5331 89.7179 13.5372 89.7202 13.5412C89.7213 13.5432 89.723 13.5462 89.7236 13.5472C89.7253 13.5501 89.727 13.5531 92.3317 12.0647ZM93.6161 10.1362C93.5801 10.1438 93.7695 10.0983 94.0835 10.1927C94.4125 10.2917 94.691 10.4882 94.8896 10.7121C95.0686 10.914 95.1572 11.107 95.202 11.2279C95.2265 11.2938 95.2452 11.3577 95.2601 11.4196C95.2677 11.4512 95.2748 11.4839 95.2812 11.5178C95.2845 11.5349 95.2877 11.5525 95.2907 11.5706C95.2922 11.5796 95.2937 11.5888 95.2952 11.5982C95.2959 11.6029 95.2967 11.6076 95.2974 11.6124C95.2978 11.6147 95.2981 11.6171 95.2985 11.6196C95.2987 11.6208 95.2989 11.6226 95.299 11.6232C95.2993 11.625 95.2996 11.6268 92.3317 12.0647C89.3638 12.5026 89.3641 12.5044 89.3644 12.5062C89.3645 12.5069 89.3647 12.5087 89.3649 12.51C89.3653 12.5124 89.3657 12.515 89.3661 12.5175C89.3668 12.5226 89.3677 12.5278 89.3685 12.5332C89.3702 12.5438 89.372 12.555 89.374 12.5666C89.3779 12.5899 89.3824 12.6151 89.3875 12.642C89.3978 12.6958 89.4108 12.7575 89.4272 12.8257C89.4598 12.9609 89.5075 13.1286 89.5775 13.317C89.7133 13.6826 89.9585 14.1946 90.4005 14.693C91.4587 15.8863 93.0707 16.3826 94.8522 16.0075L93.6161 10.1362ZM94.0096 9.65841C94.0197 9.61795 94.0131 9.65632 93.9703 9.74301C93.9306 9.8235 93.8789 9.9064 93.8212 9.97716C93.7086 10.115 93.6433 10.1305 93.6161 10.1362L94.8522 16.0075C96.5261 15.6551 97.7104 14.7008 98.4689 13.7717C99.2005 12.8757 99.6367 11.8884 99.8304 11.1137L94.0096 9.65841ZM92.7161 7.85C93.5353 8.63646 93.8343 9.24547 93.9399 9.55595C93.9945 9.71638 93.9999 9.80304 94.0001 9.80831C94.0014 9.83767 93.987 9.69827 94.0739 9.43737L99.7661 11.3347C100.476 9.20557 99.6326 6.17253 96.8713 3.52167L92.7161 7.85ZM89.7578 6C89.574 6 89.8415 5.9803 90.4743 6.26807C91.0481 6.52897 91.8387 7.00768 92.7161 7.85L96.8713 3.52167C94.2197 0.976148 91.4587 0 89.7578 0V6ZM83.4921 16.3141C83.693 17.0574 83.7867 17.4958 83.8227 17.7401C83.8403 17.8594 83.8329 17.8608 83.834 17.7852C83.8349 17.7268 83.8412 17.4381 83.991 17.0594C84.1647 16.6201 84.5121 16.1177 85.0936 15.7683C85.6228 15.4502 86.1089 15.4031 86.331 15.3968C86.5469 15.3908 86.6817 15.4197 86.6499 15.414C86.6255 15.4096 86.5795 15.3997 86.4282 15.3646L85.0747 21.21C85.1844 21.2354 85.8489 21.4127 86.4995 21.3945C86.8963 21.3833 87.5323 21.3028 88.1841 20.9111C88.8882 20.488 89.331 19.8716 89.5704 19.2661C89.9538 18.2969 89.8256 17.3201 89.7587 16.866C89.6702 16.265 89.5019 15.5539 89.2843 14.7486L83.4921 16.3141ZM79.5691 21.5165C79.9347 20.5522 80.951 19.575 82.4321 18.9169C83.1364 18.604 83.8363 18.4164 84.423 18.3441C84.7134 18.3083 84.9489 18.3042 85.1238 18.3162C85.3043 18.3286 85.3745 18.3549 85.3606 18.3499L87.4158 12.7128C86.197 12.2685 84.8602 12.2449 83.6894 12.3891C82.4746 12.5387 81.2028 12.8975 79.9958 13.4338C77.6544 14.4742 75.0896 16.4066 73.9588 19.3896L79.5691 21.5165ZM79.1929 24.4021C78.9907 24.123 78.9484 23.9286 78.9697 23.6188C79.001 23.1648 79.1741 22.5586 79.5691 21.5165L73.9588 19.3896C73.1923 21.4113 72.0001 24.7024 74.335 27.9235L79.1929 24.4021ZM82.4714 27.8391C82.3303 24.8424 82.3309 24.8424 82.3315 24.8424C82.3317 24.8424 82.3323 24.8423 82.3327 24.8423C82.3335 24.8423 82.3341 24.8422 82.3348 24.8422C82.336 24.8422 82.337 24.8421 82.3377 24.8421C82.3392 24.842 82.3397 24.842 82.3393 24.842C82.3384 24.8421 82.3337 24.8422 82.3254 24.8425C82.3088 24.843 82.2779 24.8439 82.2347 24.8446C82.1477 24.846 82.0127 24.8466 81.8428 24.8425C81.4968 24.8343 81.0382 24.8074 80.5636 24.7379C80.0746 24.6663 79.6628 24.5628 79.368 24.442C79.0509 24.3121 79.0836 24.2512 79.1929 24.402L74.335 27.9235C75.126 29.0147 76.213 29.6336 77.0939 29.9944C77.997 30.3642 78.9268 30.5622 79.6943 30.6746C80.4761 30.7891 81.1888 30.8286 81.6998 30.8408C81.9585 30.847 82.1735 30.8463 82.3294 30.8438C82.4076 30.8426 82.4715 30.8409 82.5191 30.8394C82.543 30.8386 82.5628 30.8379 82.5785 30.8372C82.5863 30.8369 82.593 30.8367 82.5987 30.8364C82.6015 30.8363 82.6041 30.8362 82.6064 30.8361C82.6075 30.836 82.6086 30.836 82.6096 30.8359C82.6101 30.8359 82.6108 30.8359 82.6111 30.8358C82.6118 30.8358 82.6124 30.8358 82.4714 27.8391ZM87.0443 30.3094C87.3048 29.3542 87.3746 28.1591 86.7793 27.0185C86.1805 25.8712 85.1961 25.3286 84.4935 25.0867C83.8117 24.852 83.1817 24.8182 82.8115 24.8182C82.6086 24.8181 82.4349 24.8286 82.3044 24.8401C82.2383 24.8458 82.1812 24.852 82.1345 24.8577C82.1111 24.8606 82.0901 24.8633 82.0717 24.8658C82.0626 24.8671 82.054 24.8683 82.0461 24.8694C82.0422 24.87 82.0384 24.8705 82.0348 24.871C82.033 24.8713 82.0312 24.8716 82.0295 24.8718C82.0287 24.872 82.0274 24.8721 82.027 24.8722C82.0257 24.8724 82.0245 24.8726 82.4714 27.8391C82.9183 30.8056 82.917 30.8058 82.9158 30.806C82.9154 30.8061 82.9142 30.8062 82.9134 30.8064C82.9118 30.8066 82.9103 30.8068 82.9087 30.8071C82.9057 30.8075 82.9027 30.8079 82.8998 30.8083C82.8941 30.8092 82.8887 30.8099 82.8838 30.8106C82.8738 30.812 82.8653 30.8131 82.858 30.8139C82.8437 30.8157 82.8339 30.8166 82.8277 30.8172C82.817 30.8181 82.813 30.8182 82.8105 30.8182C82.8095 30.8182 82.7924 30.8183 82.7594 30.814C82.7289 30.81 82.6508 30.798 82.5403 30.7599C82.3262 30.6862 81.7959 30.4378 81.4602 29.7947C81.1281 29.1584 81.2702 28.6776 81.2557 28.7307L87.0443 30.3094ZM83.6116 28.7199C83.4769 29.0489 83.5032 28.7718 83.9567 28.4835C84.2103 28.3222 84.5668 28.1815 84.9986 28.1598C85.427 28.1384 85.8085 28.2402 86.1071 28.3895C86.6615 28.6667 86.8996 29.0742 86.9923 29.3001C87.0951 29.5509 87.1557 29.901 87.0443 30.3094L81.2557 28.7307C80.9765 29.7546 81.107 30.7622 81.4406 31.576C81.7641 32.365 82.3939 33.2411 83.4239 33.7561C84.5988 34.3435 85.9991 34.295 87.176 33.5467C88.1961 32.8982 88.7959 31.8936 89.1648 30.9917L83.6116 28.7199ZM84.4633 26.5449C84.1784 27.2879 83.8936 28.0305 83.6116 28.7199L89.1648 30.9917C89.4765 30.2297 89.7855 29.4237 90.0657 28.6928L84.4633 26.5449ZM84.4755 26.5136L84.4753 26.5142L90.0537 28.7235L90.0539 28.7229L84.4755 26.5136ZM87.5086 21.4651C86.8621 21.7883 86.4842 22.2589 86.3586 22.419C86.1833 22.6426 86.0487 22.8638 85.9552 23.0287C85.7655 23.3628 85.5907 23.7412 85.4408 24.0865C85.1365 24.7873 84.7929 25.6853 84.4635 26.5443L90.0659 28.6922C90.4125 27.7882 90.7038 27.0302 90.9443 26.4763C91.0668 26.1942 91.1419 26.0455 91.1736 25.9898C91.1907 25.9596 91.1595 26.0202 91.0797 26.1219C91.0379 26.1752 90.9576 26.2723 90.8373 26.3847C90.7247 26.4901 90.5101 26.6726 90.1919 26.8317L87.5086 21.4651ZM86.5625 22.0885C86.5471 22.181 86.5085 22.3423 86.4724 22.4418C86.4535 22.494 86.4682 22.4367 86.5395 22.3206C86.5777 22.2586 86.6572 22.1382 86.7893 21.9972C86.918 21.8598 87.1519 21.6434 87.5085 21.4651L90.1919 26.8316C91.0279 26.4136 91.4731 25.7523 91.6519 25.4613C91.871 25.1046 92.0173 24.7508 92.1121 24.4896C92.3035 23.9625 92.4217 23.4299 92.4809 23.0748L86.5625 22.0885ZM84.2066 24.4545C86.0072 23.9293 86.8444 24.0818 87.0671 24.151C87.2952 24.2219 86.8685 24.1677 86.6516 23.4551L92.3917 21.7082C91.367 18.3414 87.2557 17.3151 82.5266 18.6945L84.2066 24.4545ZM83.5905 23.9223C83.2965 20.9367 83.2971 20.9366 83.2977 20.9366C83.2978 20.9366 83.2984 20.9365 83.2987 20.9365C83.2993 20.9364 83.2999 20.9364 83.3004 20.9363C83.3013 20.9362 83.3019 20.9362 83.3023 20.9361C83.3029 20.9361 83.3023 20.9361 83.3005 20.9363C83.2969 20.9366 83.2886 20.9374 83.2762 20.9384C83.2511 20.9405 83.21 20.9438 83.1566 20.9474C83.0477 20.9546 82.8983 20.9624 82.7362 20.965C82.5697 20.9676 82.4198 20.9643 82.3028 20.9554C82.1615 20.9445 82.1761 20.9334 82.2872 20.9669C82.347 20.9849 82.5131 21.0388 82.7233 21.1649C82.9293 21.2884 83.2943 21.5515 83.5879 22.0323C83.7387 22.2792 83.8587 22.5651 83.9263 22.8818C83.9938 23.1979 83.9999 23.5012 83.9663 23.7745C83.9012 24.3036 83.6967 24.6633 83.5896 24.8251C83.5307 24.914 83.4794 24.9761 83.4482 25.0115C83.4164 25.0476 83.3962 25.0664 83.3942 25.0682C83.3932 25.0693 83.4351 25.0307 83.5443 24.9528C83.7669 24.794 84.1525 24.5536 84.7728 24.2245L81.9605 18.9244C81.2098 19.3227 80.5743 19.7013 80.0594 20.0686C79.5949 20.4001 79.0106 20.8727 78.5869 21.5125C78.1201 22.2174 77.5581 23.6708 78.4674 25.1596C79.14 26.2608 80.2186 26.6101 80.5572 26.7121C81.4157 26.9706 82.3736 26.9716 82.8325 26.9642C83.1198 26.9596 83.3734 26.9462 83.5553 26.9341C83.6472 26.928 83.7233 26.922 83.7792 26.9173C83.8073 26.9149 83.8304 26.9129 83.848 26.9113C83.8569 26.9105 83.8643 26.9098 83.8704 26.9092C83.8735 26.9089 83.8761 26.9086 83.8785 26.9084C83.8796 26.9083 83.8807 26.9082 83.8817 26.9081C83.8822 26.908 83.8828 26.908 83.8831 26.908C83.8837 26.9079 83.8844 26.9078 83.5905 23.9223ZM86.8629 20.975C86.0337 20.5919 85.2108 20.6284 84.9368 20.6419C84.53 20.6619 84.142 20.7239 83.8542 20.7786C83.553 20.8359 83.2827 20.9006 83.0922 20.9494C82.995 20.9743 82.9141 20.9962 82.8547 21.0127C82.825 21.0209 82.8004 21.0279 82.7816 21.0333C82.7722 21.0359 82.7643 21.0382 82.7579 21.0401C82.7546 21.041 82.7518 21.0419 82.7493 21.0426C82.7481 21.0429 82.747 21.0433 82.746 21.0436C82.7454 21.0437 82.7449 21.0439 82.7445 21.044C82.7443 21.0441 82.7439 21.0442 82.7438 21.0442C82.7435 21.0443 82.7432 21.0444 83.5905 23.9223C84.4377 26.8001 84.4374 26.8002 84.4371 26.8003C84.437 26.8003 84.4367 26.8004 84.4366 26.8005C84.4362 26.8006 84.4358 26.8007 84.4355 26.8008C84.4348 26.801 84.4343 26.8011 84.4338 26.8013C84.4328 26.8016 84.4322 26.8018 84.4318 26.8019C84.4312 26.802 84.4319 26.8018 84.4338 26.8013C84.4376 26.8002 84.4463 26.7977 84.4592 26.7941C84.4853 26.7869 84.5273 26.7755 84.5809 26.7618C84.6918 26.7334 84.8336 26.6999 84.9749 26.673C85.0445 26.6598 85.1051 26.6498 85.155 26.6431C85.1794 26.6398 85.1985 26.6376 85.2126 26.6363C85.2268 26.6349 85.2329 26.6346 85.2315 26.6347C85.2304 26.6347 85.2167 26.6354 85.192 26.635C85.1681 26.6346 85.1243 26.6332 85.0646 26.6269C84.9759 26.6176 84.6956 26.5831 84.3467 26.4219L86.8629 20.975ZM85.6547 28.3661C86.8585 27.8568 87.8262 26.9684 88.3643 25.9108C88.6224 25.4035 88.8848 24.6486 88.8065 23.7622C88.7181 22.7605 88.1531 21.571 86.8629 20.975L84.3468 26.4219C83.3165 25.946 82.8917 24.9912 82.8298 24.2897C82.7781 23.7036 82.9532 23.3147 83.0167 23.19C83.1654 22.8978 83.3136 22.8417 83.3168 22.8403L85.6547 28.3661ZM75.9617 25.1349C76.2714 26.5284 77.2693 27.3633 77.8875 27.772C78.5939 28.2391 79.4058 28.5538 80.1966 28.747C81.7553 29.1277 83.7724 29.1624 85.6547 28.3661L83.3168 22.8403C82.8713 23.0288 82.215 23.0636 81.6201 22.9183C81.4877 22.8859 81.3808 22.8496 81.302 22.8171C81.2208 22.7835 81.189 22.762 81.1967 22.7671C81.1986 22.7684 81.2873 22.8257 81.4043 22.965C81.5202 23.1031 81.7205 23.391 81.8188 23.8333L75.9617 25.1349ZM83.1307 15.4151C82.251 15.7614 80.2618 16.5214 78.632 17.8667C76.8861 19.3079 75.2091 21.7481 75.9617 25.1349L81.8188 23.8333C81.7425 23.4899 81.7941 23.318 81.8456 23.2017C81.9179 23.0385 82.0867 22.7951 82.4516 22.4939C83.2395 21.8436 84.3466 21.3846 85.3285 20.998L83.1307 15.4151ZM83.3716 15.3198C83.3018 15.3477 83.2242 15.3783 83.1306 15.4151L85.3286 20.998C85.4183 20.9627 85.5121 20.9258 85.5999 20.8907L83.3716 15.3198ZM86.4282 15.3646C86.0931 15.287 85.3519 15.1052 84.4857 15.1052V21.1052C84.519 21.1052 84.5764 21.1087 84.6731 21.1248C84.7786 21.1423 84.8876 21.1666 85.0747 21.21L86.4282 15.3646ZM71.6356 12.8063C71.9171 14.4015 72.1041 18.519 71.6389 21.5361C71.5265 22.2656 71.3885 22.841 71.2433 23.2532C71.0822 23.7106 70.9903 23.7425 71.1131 23.6213C71.3511 23.3863 71.885 23.1098 72.497 23.214C72.8888 23.2807 72.8741 23.4392 72.4347 23.0096L68.24 27.2996C69.0596 28.101 70.143 28.8995 71.49 29.1289C73.0571 29.3957 74.4032 28.8045 75.3285 27.891C76.1385 27.0913 76.6087 26.081 76.9027 25.2462C77.2126 24.3662 77.4226 23.3994 77.5689 22.4503C78.1389 18.7527 77.9342 13.9735 77.5443 11.7636L71.6356 12.8063ZM75.0511 13.631C75.2256 12.8745 75.343 12.7848 75.225 12.9498C75.1488 13.0565 74.9053 13.3628 74.4278 13.5913C73.891 13.8481 73.2872 13.8955 72.7446 13.7584C72.2668 13.6378 71.97 13.4103 71.8508 13.3075C71.7827 13.2488 71.7373 13.2002 71.7122 13.1716C71.6865 13.1424 71.6732 13.1239 71.6706 13.1203C71.6675 13.1159 71.6845 13.1398 71.7142 13.1972C71.7426 13.2521 71.7721 13.3172 71.7987 13.3846L77.3811 11.1854C77.2009 10.728 76.9308 10.1631 76.5573 9.63887C76.2728 9.23951 75.5229 8.2717 74.2138 7.94109C73.4441 7.74669 72.6082 7.81051 71.8384 8.1788C71.1279 8.51871 70.6506 9.03153 70.3436 9.46103C69.7642 10.2717 69.433 11.2926 69.2047 12.2819L75.0511 13.631ZM74.4263 19.2468C74.4263 19.2471 74.4246 19.2351 74.4221 19.2093C74.4196 19.1839 74.4166 19.1491 74.4137 19.1043C74.4077 19.0141 74.4026 18.8935 74.4006 18.7424C74.3965 18.4398 74.4054 18.0367 74.4405 17.5415C74.5107 16.5515 74.6836 15.2234 75.0511 13.631L69.2047 12.2819C68.3437 16.0129 68.3073 18.8405 68.4866 20.0953L74.4263 19.2468ZM66.9573 20.6251C67.4247 21.6068 67.8965 22.464 68.4019 23.0805C68.6278 23.3561 69.092 23.8783 69.8148 24.2076C70.2183 24.3914 70.7903 24.5545 71.4699 24.4898C72.1772 24.4226 72.7745 24.1296 73.2212 23.7533C73.9928 23.1034 74.241 22.2803 74.3212 21.9874C74.4287 21.5947 74.4681 21.2228 74.4854 20.9512C74.5207 20.3953 74.4875 19.8203 74.4408 19.365L68.4721 19.9771C68.5 20.2492 68.5041 20.466 68.4974 20.571C68.4937 20.6299 68.4924 20.5558 68.534 20.4038C68.5482 20.3516 68.7056 19.712 69.3559 19.1643C69.742 18.839 70.2711 18.5768 70.902 18.5168C71.5051 18.4594 71.9925 18.6064 72.3024 18.7475C72.6022 18.8841 72.797 19.0414 72.8873 19.1209C72.9841 19.2062 73.0352 19.2683 73.0421 19.2768C73.0517 19.2885 72.9912 19.2143 72.8606 18.9882C72.7362 18.7728 72.575 18.4667 72.3745 18.0455L66.9573 20.6251ZM65.6371 17.5232C65.1702 17.5232 64.8945 17.3726 64.8533 17.349C64.8041 17.3208 64.8862 17.3583 65.0826 17.5682C65.4825 17.9959 66.137 18.9026 66.9573 20.6251L72.3745 18.0455C71.4042 16.0079 70.436 14.5085 69.465 13.4701C68.5846 12.5287 67.2807 11.5232 65.6371 11.5232V17.5232ZM65.9331 23.1133C66.2379 23.4416 66.2489 23.6707 66.177 23.4144C66.1265 23.2346 66.0679 22.9263 66.0285 22.4864C65.9502 21.6111 65.9724 20.4963 66.1092 19.4197C66.2515 18.2998 66.4862 17.4741 66.6932 17.054C66.7998 16.8377 66.7947 16.945 66.5701 17.1203C66.2528 17.3679 65.6757 17.5956 65.0253 17.4601L66.249 11.5863C64.9271 11.3109 63.7415 11.717 62.8791 12.3899C62.1093 12.9905 61.6225 13.7702 61.3112 14.4019C60.6824 15.6779 60.3365 17.2514 60.1571 18.6634C59.9721 20.1187 59.9314 21.6689 60.0524 23.0212C60.1127 23.6951 60.2194 24.3914 60.4002 25.0356C60.5595 25.6033 60.8677 26.476 61.5363 27.196L65.9331 23.1133ZM62.9729 21.6854C62.9729 22.1855 62.9342 22.6526 62.8698 23.0331C62.7999 23.4458 62.7234 23.6165 62.7262 23.611C62.7305 23.6026 62.8051 23.4527 62.9975 23.2668C63.2033 23.0679 63.5898 22.7881 64.1599 22.6842C65.3986 22.4582 66.0458 23.2347 65.9331 23.1133L61.5363 27.196C62.1509 27.8579 63.4416 28.9142 65.2364 28.5868C66.9238 28.279 67.7516 26.9643 68.0724 26.3345C68.7738 24.9578 68.9729 23.1269 68.9729 21.6854H62.9729ZM70.0394 20.2092C69.8637 19.8983 69.6277 19.5254 69.3483 19.1723C69.1416 18.911 68.6316 18.2904 67.8501 17.9033C67.4166 17.6885 66.6118 17.4047 65.6307 17.6311C64.5754 17.8747 63.9128 18.5659 63.5621 19.1483C63.0019 20.0783 62.9729 21.1349 62.9729 21.6854H68.9729C68.9729 21.5326 68.9828 21.504 68.9735 21.5589C68.9692 21.5847 68.9232 21.8763 68.7019 22.2439C68.4497 22.6626 67.9045 23.2641 66.9799 23.4775C66.1296 23.6737 65.4687 23.4194 65.1867 23.2797C64.7084 23.0427 64.5318 22.7546 64.6432 22.8955C64.6821 22.9446 64.7493 23.0435 64.816 23.1616L70.0394 20.2092ZM72.4036 22.9796C71.6071 22.223 71.0306 21.5705 70.644 21.084C70.2298 20.5626 70.0913 20.3045 70.111 20.3438L64.7444 23.027C65.1797 23.8976 66.3377 25.4929 68.2711 27.3296L72.4036 22.9796ZM56.5295 14.105C54.6457 14.105 53.4025 15.2571 52.7451 16.0673C52.0733 16.8953 51.5807 17.8878 51.2317 18.6441L56.6794 21.1584C56.8303 20.8316 56.9682 20.5533 57.0999 20.3186C57.2339 20.0798 57.3364 19.9315 57.4042 19.8478C57.4762 19.7592 57.4553 19.8102 57.3218 19.8924C57.1624 19.9905 56.8838 20.105 56.5295 20.105V14.105ZM62.8797 21.5463C62.1455 19.785 61.3088 18.1884 60.5365 17.0014C60.1598 16.4225 59.737 15.8454 59.2912 15.3845C59.0761 15.162 58.7576 14.8632 58.3491 14.6143C58.033 14.4218 57.0967 13.9058 55.8787 14.1765L57.1803 20.0336C56.1022 20.2732 55.3404 19.8071 55.2279 19.7386C55.0229 19.6138 54.937 19.513 54.978 19.5554C55.0445 19.6241 55.2281 19.8444 55.5074 20.2737C56.0471 21.1032 56.7212 22.3665 57.3415 23.8547L62.8797 21.5463ZM62.4497 20.6637C62.3964 20.6471 62.3599 20.6357 62.3247 20.6243C62.2913 20.6135 62.267 20.6051 62.248 20.5983C62.2105 20.5847 62.1999 20.579 62.2043 20.5811C62.2099 20.584 62.2286 20.5939 62.2535 20.6121C62.2792 20.6308 62.3018 20.6513 62.3191 20.6701L57.9021 24.7309C58.975 25.8979 60.2265 26.2556 60.6656 26.3924L62.4497 20.6637ZM62.5064 20.682L62.5063 20.682L60.609 26.3741L60.609 26.3741L62.5064 20.682ZM63.6772 21.2116C63.1272 20.8449 62.4711 20.6704 62.4497 20.6637L60.6657 26.3924C60.7169 26.4083 60.7442 26.4169 60.7665 26.4241C60.7877 26.431 60.7846 26.4304 60.7681 26.4242C60.7521 26.4183 60.7051 26.4003 60.6399 26.3694C60.5753 26.3388 60.4717 26.2857 60.3489 26.2038L63.6772 21.2116ZM64.1488 28.3459C65.0304 27.6847 65.3774 26.7873 65.5044 26.1591C65.6313 25.5313 65.5923 24.9485 65.5178 24.5015C65.3691 23.6091 64.9865 22.7091 64.4543 21.964L59.5719 25.4514C59.5716 25.4511 59.5755 25.4566 59.5817 25.4678C59.5879 25.4789 59.594 25.4915 59.5992 25.5039C59.6125 25.5354 59.6072 25.5346 59.5994 25.4879C59.5949 25.4605 59.5629 25.2694 59.6233 24.9704C59.6839 24.6709 59.891 24.0392 60.5488 23.5459L64.1488 28.3459ZM65.0072 27.8851C64.9957 27.7009 64.9945 27.4094 65.0167 27.1949C65.0285 27.0814 65.0363 27.0965 65.0058 27.1947C64.9895 27.2474 64.9435 27.3856 64.8429 27.5639C64.7476 27.733 64.5386 28.0536 64.1488 28.3459L60.5488 23.5459C59.6692 24.2056 59.3688 25.1146 59.2742 25.4203C59.1414 25.8492 59.0807 26.2671 59.0486 26.577C58.9831 27.2093 58.9931 27.8466 59.0189 28.2593L65.0072 27.8851ZM61.1925 33.5193C63.5956 33.279 64.4291 31.1342 64.6369 30.5074C64.9368 29.6026 65.0131 28.6679 65.0131 28.0722H59.0131C59.0131 28.1364 59.0077 28.2493 58.9908 28.3757C58.9732 28.5066 58.9514 28.5898 58.9416 28.6194C58.9237 28.6735 58.9637 28.5121 59.1551 28.2855C59.383 28.0158 59.8667 27.622 60.5955 27.5491L61.1925 33.5193ZM56.7009 29.9594C56.7906 30.2417 57.0511 31.1704 57.5854 31.9134C57.9126 32.3683 58.4072 32.8649 59.1278 33.1937C59.8478 33.5223 60.5702 33.5815 61.1925 33.5193L60.5955 27.5491C60.7999 27.5287 61.1824 27.5361 61.6186 27.7352C62.0556 27.9346 62.3226 28.224 62.4566 28.4103C62.571 28.5694 62.5993 28.6682 62.5671 28.5854C62.5353 28.5039 62.4979 28.39 62.4189 28.1416L56.7009 29.9594ZM56.7405 30.0757L56.7405 30.0757L62.3793 28.0253L62.3793 28.0252L56.7405 30.0757ZM56.4461 29.226C56.5302 29.4279 56.5995 29.6405 56.7009 29.9593L62.4189 28.1416C62.3259 27.8492 62.1837 27.3963 61.9846 26.9184L56.4461 29.226ZM56.5945 30.2068C56.9326 30.1491 57.1538 30.1126 57.3482 30.0926C57.542 30.0727 57.583 30.0845 57.534 30.0779C57.4692 30.0693 57.2318 30.0255 56.9576 29.8326C56.6627 29.6252 56.5076 29.3737 56.4461 29.226L61.9846 26.9183C61.6593 26.1377 61.1411 25.4398 60.4099 24.9254C59.6995 24.4256 58.9526 24.2145 58.3319 24.1312C57.2311 23.9835 56.0917 24.2059 55.5854 24.2923L56.5945 30.2068ZM56.3513 30.248C56.4349 30.2341 56.5179 30.2199 56.5945 30.2068L55.5854 24.2923C55.5069 24.3057 55.4352 24.3179 55.3648 24.3296L56.3513 30.248ZM55.1222 31.1214C55.6375 30.6753 55.8614 30.4898 56.0563 30.3661C56.1757 30.2903 56.2395 30.2666 56.3512 30.248L55.3648 24.3296C53.3148 24.6713 52.0707 25.8271 51.195 26.5852L55.1222 31.1214ZM54.4213 31.7198C54.6839 31.5009 54.921 31.2956 55.1222 31.1214L51.195 26.5852C50.9899 26.7628 50.7933 26.9328 50.5802 27.1104L54.4213 31.7198ZM47.9006 27.2427C47.2211 29.0578 47.9659 30.8951 49.22 31.8832C49.8978 32.4173 50.7955 32.7714 51.806 32.7426C52.8253 32.7135 53.721 32.3034 54.4213 31.7198L50.5802 27.1104C50.7434 26.9745 51.1046 26.7602 51.635 26.745C52.1566 26.7302 52.6109 26.9163 52.9334 27.1704C53.4769 27.5986 53.8635 28.4279 53.5198 29.3463L47.9006 27.2427ZM48.1622 24.7205C47.9759 24.9487 47.7175 25.2829 47.5002 25.6812C47.2891 26.0683 46.9932 26.7363 47.0022 27.5882C47.0248 29.7244 48.732 30.6994 49.4953 31.0375L51.9251 25.5515C51.8628 25.5239 52.0935 25.6093 52.3657 25.9022C52.7053 26.2675 52.9946 26.8378 53.0019 27.5246C53.008 28.1023 52.8085 28.4793 52.7674 28.5547C52.7202 28.6412 52.7054 28.643 52.8105 28.5143L48.1622 24.7205ZM48.5609 24.2497C48.4662 24.3586 48.3304 24.5144 48.1622 24.7205L52.8106 28.5142C52.9142 28.3872 52.9965 28.2925 53.0866 28.189L48.5609 24.2497ZM48.3276 24.5552L48.3276 24.5553L53.3199 27.8835L53.3199 27.8834L48.3276 24.5552ZM48.7521 23.9426C48.653 24.1657 48.633 24.1813 48.6635 24.1353C48.679 24.1118 48.6898 24.0991 48.6817 24.109C48.6642 24.1305 48.6388 24.1602 48.5609 24.2497L53.0867 28.1889C53.2081 28.0494 53.4411 27.7879 53.6672 27.4464C53.8969 27.0992 54.0719 26.7464 54.235 26.3794L48.7521 23.9426ZM50.4938 20.2036C49.9769 21.2856 49.3477 22.6024 48.7521 23.9426L54.235 26.3794C54.7921 25.1259 55.3865 23.8812 55.9078 22.7897L50.4938 20.2036ZM50.4799 20.233L50.4798 20.2333L55.9218 22.76L55.922 22.7597L50.4799 20.233ZM51.2317 18.6441C51.0331 19.0744 50.7839 19.5963 50.4939 20.2033L55.908 22.7894C56.1923 22.1941 56.4606 21.6325 56.6794 21.1584L51.2317 18.6441ZM53.5435 20.2071C53.2015 20.7502 52.696 21.596 52.3095 22.3547C52.1295 22.7081 51.9038 23.1798 51.7567 23.6402C51.6973 23.8261 51.5544 24.2925 51.5612 24.8563C51.5647 25.1432 51.6071 25.715 51.9401 26.3296C52.3343 27.0569 53.0262 27.631 53.8997 27.8494L55.355 22.0286C56.1837 22.2358 56.8428 22.7835 57.2153 23.4707C57.5266 24.0451 57.5581 24.5629 57.5608 24.7837C57.5638 25.0345 57.5305 25.2201 57.5144 25.2993C57.496 25.39 57.4776 25.449 57.4721 25.4663C57.4651 25.4881 57.5066 25.371 57.6558 25.078C57.9277 24.5442 58.3287 23.868 58.6209 23.404L53.5435 20.2071ZM60.5593 24.8832C60.7734 24.0271 60.5669 23.3192 60.4958 23.0897C60.3972 22.7717 60.2681 22.5051 60.1738 22.3265C59.9811 21.9613 59.7438 21.61 59.5455 21.3339C59.136 20.7639 58.6533 20.1852 58.3317 19.8207L53.8327 23.7904C54.0706 24.06 54.416 24.4774 54.6724 24.8343C54.7334 24.9192 54.7819 24.9904 54.8183 25.047C54.8566 25.1064 54.8699 25.1316 54.8673 25.1266C54.8653 25.1227 54.854 25.1013 54.8379 25.0644C54.8226 25.0295 54.7943 24.9614 54.7647 24.866C54.7367 24.7757 54.6931 24.615 54.6699 24.4029C54.6477 24.1991 54.6331 23.8494 54.7385 23.428L60.5593 24.8832ZM53.8997 27.8494C54.3666 27.9661 54.7917 27.9585 54.9464 27.9551C55.1747 27.9501 55.4029 27.931 55.6077 27.908C56.0206 27.8616 56.4815 27.783 56.9211 27.6843C57.3429 27.5896 57.8538 27.4524 58.3232 27.2614C58.5482 27.1698 58.8822 27.0189 59.2179 26.7855C59.4366 26.6335 60.2698 26.0413 60.5593 24.8833L54.7385 23.428C54.8801 22.8614 55.1589 22.4758 55.3408 22.2672C55.5263 22.0546 55.7002 21.9236 55.7927 21.8593C55.8925 21.7899 55.9696 21.7487 56.0047 21.7308C56.0246 21.7207 56.0395 21.7137 56.0483 21.7098C56.0528 21.7077 56.0562 21.7062 56.0584 21.7053C56.0606 21.7044 56.0618 21.7039 56.0619 21.7038C56.0619 21.7038 56.0586 21.7052 56.0515 21.7078C56.0445 21.7104 56.0347 21.7139 56.0219 21.7182C55.996 21.7271 55.9618 21.738 55.9191 21.7505C55.8325 21.7758 55.7266 21.8031 55.6069 21.83C55.3611 21.8852 55.1156 21.9255 54.9374 21.9455C54.8467 21.9557 54.8083 21.9567 54.8158 21.9565C54.82 21.9565 54.8607 21.9555 54.9275 21.9598C54.9783 21.9631 55.14 21.9748 55.355 22.0286L53.8997 27.8494ZM45.4102 11.6441C44.8939 10.9987 44.2294 10.4848 43.5149 10.1476C42.8363 9.82735 41.838 9.54192 40.7278 9.76621C39.4304 10.0283 38.36 10.9237 37.8791 12.2301C37.4698 13.342 37.5769 14.4917 37.796 15.4308L43.639 14.0675C43.5448 13.6637 43.677 13.8482 43.5098 14.3026C43.4135 14.5641 43.2259 14.8844 42.902 15.162C42.5794 15.4386 42.2237 15.5852 41.9159 15.6474C41.3596 15.7598 41.0104 15.6002 40.9543 15.5737C40.8623 15.5303 40.7937 15.478 40.725 15.3922L45.4102 11.6441ZM46.9684 13.6742C46.555 13.0669 45.8811 12.0489 45.1275 11.3371L41.0077 15.6992C41.1804 15.8622 41.4565 16.2397 42.0086 17.0506L46.9684 13.6742ZM46.5317 12.8081C46.3449 13.575 46.1686 14.1621 46.0088 14.6035C45.846 15.0533 45.7205 15.295 45.6547 15.4017C45.5813 15.5208 45.6445 15.371 45.9119 15.1914C46.0565 15.0943 46.2554 14.9926 46.5054 14.9266C46.7582 14.8597 47.0142 14.8424 47.2549 14.8662C47.7198 14.9121 47.9959 15.0952 48.0497 15.1326C48.1064 15.1721 48.0757 15.1614 47.9558 15.0267C47.8434 14.9004 47.7038 14.7236 47.5289 14.4819C47.3541 14.2404 47.1751 13.9779 46.9684 13.6742L42.0086 17.0506C42.3818 17.5989 42.9059 18.3777 43.4742 19.0162C43.9294 19.5275 45.0171 20.6742 46.6646 20.8371C48.7729 21.0455 50.1038 19.6183 50.762 18.5505C51.4292 17.4684 51.9309 15.9947 52.3612 14.2282L46.5317 12.8081ZM50.2009 7.47046C49.1118 8.22443 48.319 9.32156 47.8204 10.122C47.2875 10.9777 46.8824 11.8382 46.6528 12.4249L52.2402 14.6114C52.3463 14.3402 52.5902 13.813 52.9135 13.294C53.0716 13.04 53.2276 12.8222 53.3708 12.6529C53.441 12.5699 53.5003 12.5078 53.5467 12.4638C53.5938 12.4191 53.6177 12.4025 53.6161 12.4036L50.2009 7.47046ZM56.2435 14.2009C57.108 13.4381 57.7386 12.475 58.0675 11.4591C58.3686 10.5291 58.5419 9.11348 57.7935 7.78941C56.8751 6.16451 55.1659 5.66377 53.6985 5.86258C52.4145 6.03654 51.1955 6.71353 50.0969 7.54576L53.7201 12.3283C54.468 11.7617 54.7038 11.7812 54.504 11.8083C54.369 11.8265 54.0268 11.8437 53.6013 11.6625C53.1482 11.4696 52.7897 11.1302 52.5702 10.7417C52.3678 10.3837 52.3292 10.0713 52.3255 9.90533C52.3218 9.73521 52.3511 9.63588 52.3592 9.61104C52.3733 9.56733 52.3604 9.62539 52.2737 9.7019L56.2435 14.2009ZM51.7215 26.1875C52.4846 21.1083 53.1517 17.2279 56.3554 14.097L52.1618 9.80585C47.3207 14.5369 46.5147 20.4601 45.7881 25.296L51.7215 26.1875ZM51.7548 25.7418V25.7417H45.7548V25.7418H51.7548ZM51.7342 26.0924L51.7342 26.0923L45.7753 25.3912L45.7753 25.3913L51.7342 26.0924ZM51.1653 29.6199C51.3811 28.4549 51.5557 27.2904 51.7214 26.1876L45.788 25.2961C45.6198 26.4157 45.4597 27.4793 45.2656 28.5273L51.1653 29.6199ZM43.2725 23.4988C42.7032 26.0608 42.9671 29.3435 43.5962 31.3048C43.7516 31.7891 44.0179 32.487 44.495 33.0917C44.7381 33.3999 45.1854 33.8764 45.8913 34.1787C46.7056 34.5273 47.6465 34.545 48.5068 34.168C49.255 33.8401 49.7169 33.3143 49.9688 32.9656C50.2352 32.5971 50.4196 32.214 50.5512 31.8891C50.8141 31.2405 51.0088 30.4649 51.1653 29.6199L45.2656 28.5273C45.1423 29.1931 45.0363 29.5226 44.9906 29.6355C44.9679 29.6913 44.996 29.6031 45.1057 29.4513C45.2011 29.3194 45.5061 28.9321 46.0986 28.6724C46.8033 28.3636 47.5898 28.3791 48.2529 28.663C48.8073 28.9004 49.1062 29.2495 49.2055 29.3753C49.395 29.6155 49.392 29.7294 49.3095 29.4723C49.1736 29.0484 49.0271 28.2633 48.9766 27.3097C48.9265 26.3645 48.9823 25.4634 49.1297 24.8004L43.2725 23.4988ZM46.4811 23.367C45.7734 23.5439 44.9624 23.4202 44.313 22.9331C43.725 22.4922 43.555 21.9723 43.5191 21.8405C43.4805 21.6988 43.5168 21.7272 43.5004 22.0397C43.4848 22.3361 43.4264 22.8063 43.2725 23.4988L49.1297 24.8004C49.515 23.0662 49.6513 21.5241 49.3084 20.2644C49.127 19.5982 48.7388 18.7525 47.913 18.1331C47.0258 17.4677 45.9573 17.3133 45.0259 17.5461L46.4811 23.367ZM37.796 15.4308C38.2941 17.5656 39.6466 19.2786 40.8285 20.4485C42.0448 21.6523 43.3737 22.5691 44.3024 23.0823L47.2045 17.8308C46.7157 17.5607 45.84 16.9667 45.0493 16.1841C44.2243 15.3675 43.7676 14.6186 43.639 14.0675L37.796 15.4308ZM31.0532 22.4536C31.3953 18.9896 31.9761 17.2834 32.3573 16.5649C32.5457 16.2099 32.5973 16.2638 32.385 16.4137C32.1554 16.5758 31.5101 16.8983 30.6357 16.6598L32.2144 10.8713C30.9297 10.5209 29.749 10.9301 28.9249 11.5119C28.118 12.0814 27.516 12.888 27.0571 13.7527C26.1439 15.4739 25.4563 18.0762 25.0823 21.8639L31.0532 22.4536ZM30.9541 25.8532C31.3674 26.1012 31.4795 26.3887 31.4482 26.3215C31.421 26.2632 31.3467 26.0633 31.2735 25.65C31.1261 24.8185 31.0677 23.64 31.0677 22.1588H25.0677C25.0677 23.6991 25.1212 25.3184 25.3656 26.697C25.4882 27.3889 25.6797 28.1473 26.0092 28.8548C26.3346 29.5535 26.8944 30.4145 27.8672 30.9982L30.9541 25.8532ZM27.9774 25.2922C27.9774 25.6918 27.9548 26.0441 27.9169 26.325C27.8761 26.6275 27.831 26.7451 27.837 26.7303C27.8424 26.7172 27.887 26.6083 28.0005 26.4574C28.1149 26.3053 28.3449 26.0508 28.7303 25.8479C29.1451 25.6296 29.62 25.5358 30.0837 25.58C30.5148 25.6211 30.8127 25.7684 30.9541 25.8532L27.8672 30.9982C28.7664 31.5378 30.1425 31.8849 31.5248 31.1574C32.6519 30.5642 33.1653 29.5522 33.3903 29.0021C33.8681 27.8342 33.9774 26.407 33.9774 25.2922H27.9774ZM35.2559 22.7717C35.1321 22.1834 34.9989 21.6551 34.8477 21.2077C34.7399 20.8886 34.4837 20.1554 33.9174 19.5536C33.6028 19.2194 32.8897 18.6071 31.7781 18.5455C30.5989 18.4802 29.7768 19.0718 29.374 19.4771C28.7245 20.1307 28.4966 20.9365 28.4367 21.1386C28.0821 22.3355 27.9774 24.2432 27.9774 25.2922H33.9774C33.9774 24.8842 34.0008 24.34 34.0486 23.8234C34.0722 23.5675 34.1 23.3387 34.1296 23.1509C34.1443 23.0579 34.1581 22.9831 34.1701 22.9261C34.1826 22.867 34.19 22.8416 34.1895 22.8432C34.1889 22.8451 34.1844 22.8603 34.1749 22.8863C34.1658 22.9114 34.1483 22.9568 34.1203 23.0167C34.0829 23.0968 33.9412 23.3932 33.6299 23.7065C33.297 24.0414 32.5484 24.5974 31.4462 24.5363C30.4114 24.479 29.7788 23.9109 29.5482 23.6658C29.1497 23.2424 29.0754 22.8677 29.1634 23.1282C29.2081 23.2605 29.2847 23.533 29.3846 24.0078L35.2559 22.7717ZM34.4502 22.6447C34.3436 23.0605 34.2246 23.4061 34.1062 23.683C33.9866 23.9628 33.8775 24.1494 33.7995 24.2606C33.7177 24.3773 33.7001 24.3686 33.7789 24.31C33.8625 24.248 34.0943 24.1027 34.4664 24.0559C34.6518 24.0325 34.8465 24.0376 35.0393 24.0745C35.2311 24.1113 35.3939 24.1743 35.5231 24.2431C35.774 24.3766 35.8623 24.5107 35.8372 24.4767C35.8134 24.4446 35.7245 24.3098 35.6082 24.0123C35.494 23.7202 35.3701 23.3142 35.2559 22.7718L29.3846 24.0078C29.7086 25.5464 30.2124 26.9614 31.0126 28.0437C31.8452 29.1699 33.2893 30.2513 35.2154 30.0089C36.9178 29.7947 38.0585 28.6373 38.7117 27.7059C39.415 26.7032 39.9223 25.4606 40.2622 24.1349L34.4502 22.6447ZM42.2382 24.1584C42.1793 23.6577 42.0927 22.9964 41.9719 22.359C41.8713 21.828 41.6832 20.9375 41.3007 20.2072C41.173 19.9634 40.6181 18.9003 39.3315 18.4755C37.5401 17.8841 36.2599 18.9873 35.8186 19.5008C35.3755 20.0167 35.1135 20.6094 34.9539 21.02C34.7719 21.4881 34.6067 22.0346 34.4502 22.6447L40.2622 24.1349C40.3856 23.6539 40.4826 23.3575 40.5463 23.1935C40.6324 22.972 40.5995 23.1433 40.3696 23.4109C40.2441 23.557 39.9422 23.8706 39.4278 24.0906C38.8401 24.3419 38.1341 24.3987 37.4505 24.173C36.8425 23.9723 36.469 23.6206 36.2943 23.4267C36.1135 23.2262 36.0189 23.0547 35.9857 22.9912C35.9109 22.8485 35.9747 22.9372 36.0769 23.4763C36.1589 23.9091 36.2262 24.4088 36.2793 24.8594L42.2382 24.1584ZM39.1021 25.4424C39.0419 25.7837 38.9914 25.8986 39.0011 25.8761C39.0085 25.8593 39.0483 25.77 39.1391 25.6447C39.2302 25.519 39.3967 25.3241 39.6639 25.1397C40.3129 24.6921 41.1172 24.6 41.7957 24.8032C42.3278 24.9625 42.6008 25.2445 42.6358 25.2804C42.7152 25.3616 42.6122 25.2692 42.4604 24.9089C42.3239 24.585 42.2542 24.2947 42.2382 24.1584L36.2793 24.8594C36.3751 25.6743 36.6271 26.5171 36.9313 27.2389C37.2201 27.9242 37.6767 28.79 38.3436 29.4728C38.6724 29.8094 39.2461 30.303 40.0747 30.5511C41.0495 30.8429 42.1458 30.7168 43.0711 30.0785C43.8576 29.5359 44.2762 28.7918 44.5041 28.2672C44.7473 27.7074 44.9032 27.095 45.0108 26.4851L39.1021 25.4424ZM38.0356 18.4496C38.2841 19.0783 38.6722 20.288 38.9318 21.6692C39.1974 23.083 39.2807 24.4303 39.1021 25.4424L45.0108 26.4851C45.3694 24.4532 45.1542 22.294 44.8286 20.5612C44.4969 18.7959 44.0009 17.219 43.6153 16.2437L38.0356 18.4496ZM39.1288 18.7187C39.3848 18.221 39.4755 18.2848 39.2326 18.4276C39.0963 18.5076 38.904 18.5817 38.6728 18.6073C38.4465 18.6322 38.2555 18.6029 38.122 18.5644C37.9954 18.5279 37.9265 18.4853 37.9149 18.4779C37.9026 18.4701 37.9218 18.4809 37.9662 18.5234C38.0632 18.6161 38.1721 18.7554 38.253 18.8901L43.3979 15.8032C43.0871 15.2851 42.6561 14.7063 42.113 14.187C41.5876 13.6846 40.8073 13.0945 39.7855 12.7996C38.6631 12.4757 37.3823 12.5555 36.1926 13.2547C35.1027 13.8952 34.3429 14.9055 33.7931 15.9746L39.1288 18.7187ZM38.8759 19.6107C39.0343 19.1011 39.1611 18.6956 39.276 18.3838L33.6459 16.3095C33.4663 16.7972 33.2907 17.3651 33.1461 17.8305L38.8759 19.6107ZM31.3432 18.3558C31.4351 19.5736 31.5589 20.5984 31.7662 21.349C31.8442 21.6314 32.0575 22.38 32.6418 23.0168C32.9885 23.3947 33.6179 23.895 34.5484 24.0226C35.4935 24.1523 36.2507 23.8299 36.7076 23.5306C37.4559 23.0405 37.8267 22.3431 37.9283 22.1551C38.0965 21.8438 38.2294 21.5206 38.3286 21.2594C38.528 20.7347 38.7211 20.109 38.8759 19.6107L33.1461 17.8305C32.9738 18.3851 32.8393 18.814 32.7198 19.1284C32.6596 19.2869 32.6352 19.3295 32.6496 19.3029C32.6577 19.2878 32.7025 19.2053 32.7894 19.0914C32.8625 18.9954 33.0646 18.7442 33.4201 18.5114C33.804 18.26 34.4894 17.9583 35.3639 18.0783C36.2239 18.1963 36.7839 18.6564 37.0628 18.9604C37.328 19.2494 37.4521 19.5126 37.4914 19.6005C37.5394 19.7078 37.5546 19.7693 37.5497 19.7515C37.5108 19.6108 37.416 19.0946 37.3262 17.9043L31.3432 18.3558ZM31.425 16.7655C30.8592 16.7655 30.5365 16.4963 30.4993 16.4625C30.4792 16.4443 30.5737 16.5321 30.7297 16.8224C31.0404 17.4005 31.2853 18.194 31.3959 18.7329L37.2735 17.5272C37.0856 16.6112 36.6814 15.2224 36.0148 13.982C35.6821 13.3631 35.2059 12.6326 34.5358 12.0233C33.8486 11.3985 32.7966 10.7655 31.425 10.7655V16.7655ZM20.4207 21.1584C20.5715 20.8316 20.7095 20.5533 20.8412 20.3186C20.9751 20.0798 21.0776 19.9315 21.1455 19.8478C21.2174 19.7592 21.1966 19.8102 21.0631 19.8924C20.9036 19.9905 20.625 20.105 20.2707 20.105V14.105C18.3869 14.105 17.1438 15.2571 16.4863 16.0673C15.8145 16.8953 15.3219 17.8878 14.9729 18.6441L20.4207 21.1584ZM19.6492 22.7894C19.9335 22.1941 20.2019 21.6325 20.4207 21.1584L14.9729 18.6441C14.7743 19.0744 14.5251 19.5963 14.2351 20.2033L19.6492 22.7894ZM17.9762 26.3794C18.5334 25.1258 19.1278 23.8809 19.6492 22.7894L14.2351 20.2033C13.7183 21.2853 13.089 22.6023 12.4933 23.9426L17.9762 26.3794ZM16.8279 28.1889C16.9494 28.0494 17.1824 27.7879 17.4084 27.4464C17.6381 27.0992 17.8131 26.7465 17.9762 26.3794L12.4933 23.9426C12.3942 24.1657 12.3743 24.1813 12.4047 24.1353C12.4202 24.1118 12.431 24.0991 12.4229 24.109C12.4054 24.1305 12.3801 24.1602 12.3021 24.2497L16.8279 28.1889ZM16.8696 28.1399L16.8697 28.1399L12.2603 24.2988L12.2603 24.2988L16.8696 28.1399ZM16.8474 28.1663L16.8475 28.1662L12.2825 24.2725L12.2824 24.2726L16.8474 28.1663ZM16.5518 28.5143C16.6554 28.3872 16.7377 28.2925 16.8278 28.189L12.302 24.2499C12.2073 24.3587 12.0716 24.5144 11.9034 24.7205L16.5518 28.5143ZM15.6663 25.5515C15.604 25.5239 15.8347 25.6093 16.1069 25.9022C16.4465 26.2675 16.7358 26.8378 16.7431 27.5246C16.7492 28.1023 16.5498 28.4793 16.5086 28.5547C16.4614 28.6412 16.4467 28.643 16.5518 28.5143L11.9034 24.7205C11.7171 24.9487 11.4587 25.283 11.2415 25.6812C11.0303 26.0683 10.7344 26.7363 10.7434 27.5882C10.7661 29.7244 12.4733 30.6994 13.2365 31.0375L15.6663 25.5515ZM14.3214 27.1104C14.4846 26.9745 14.8459 26.7602 15.3762 26.745C15.8979 26.7302 16.3521 26.9163 16.6746 27.1704C17.2181 27.5986 17.6048 28.4279 17.261 29.3463L11.6418 27.2427C10.9623 29.0578 11.7071 30.8951 12.9612 31.8832C13.6391 32.4173 14.5367 32.7714 15.5473 32.7426C16.5665 32.7135 17.4622 32.3034 18.1625 31.7198L14.3214 27.1104ZM14.9363 26.5852C14.7311 26.7628 14.5345 26.9328 14.3214 27.1104L18.1625 31.7198C18.4251 31.5009 18.6622 31.2956 18.8634 31.1214L14.9363 26.5852ZM19.1061 24.3296C17.056 24.6713 15.8119 25.8271 14.9363 26.5852L18.8634 31.1214C19.3787 30.6753 19.6027 30.4898 19.7975 30.3661C19.9169 30.2903 19.9807 30.2666 20.0925 30.248L19.1061 24.3296ZM19.3266 24.2923C19.2481 24.3057 19.1764 24.3179 19.106 24.3297L20.0925 30.248C20.1761 30.2341 20.2592 30.2199 20.3358 30.2068L19.3266 24.2923ZM25.7258 26.9183C25.4005 26.1377 24.8823 25.4398 24.1511 24.9254C23.4407 24.4256 22.6939 24.2145 22.0731 24.1312C20.9723 23.9835 19.8329 24.2059 19.3266 24.2923L20.3358 30.2068C20.6738 30.1491 20.8951 30.1126 21.0895 30.0926C21.2833 30.0727 21.3242 30.0845 21.2752 30.0779C21.2105 30.0693 20.973 30.0255 20.6988 29.8326C20.4039 29.6252 20.2489 29.3737 20.1873 29.226L25.7258 26.9183ZM26.1601 28.1416C26.0672 27.8492 25.9249 27.3963 25.7258 26.9183L20.1873 29.226C20.2714 29.4279 20.3408 29.6405 20.4421 29.9594L26.1601 28.1416ZM24.3367 27.5491C24.5411 27.5287 24.9236 27.5361 25.3599 27.7352C25.7968 27.9346 26.0639 28.224 26.1978 28.4103C26.3122 28.5694 26.3406 28.6682 26.3083 28.5854C26.2765 28.5039 26.2391 28.39 26.1601 28.1416L20.4421 29.9594C20.5319 30.2417 20.7923 31.1704 21.3267 31.9134C21.6538 32.3683 22.1484 32.8649 22.869 33.1937C23.589 33.5223 24.3114 33.5815 24.9337 33.5193L24.3367 27.5491ZM22.7543 28.0722C22.7543 28.1364 22.749 28.2493 22.732 28.3757C22.7144 28.5066 22.6927 28.5898 22.6829 28.6194C22.6649 28.6735 22.7049 28.5121 22.8964 28.2855C23.1243 28.0158 23.6079 27.622 24.3367 27.5491L24.9337 33.5193C27.3368 33.279 28.1703 31.1342 28.3781 30.5074C28.678 29.6026 28.7543 28.6679 28.7543 28.0722H22.7543ZM24.29 23.5459C23.4104 24.2056 23.1101 25.1146 23.0154 25.4203C22.8827 25.8492 22.8219 26.2671 22.7898 26.577C22.7244 27.2093 22.7343 27.8466 22.7601 28.2593L28.7485 27.8851C28.7369 27.7009 28.7357 27.4094 28.7579 27.1949C28.7697 27.0814 28.7775 27.0964 28.747 27.1947C28.7307 27.2474 28.6848 27.3856 28.5842 27.5639C28.4888 27.733 28.2798 28.0536 27.89 28.3459L24.29 23.5459ZM23.3131 25.4514C23.3129 25.4511 23.3168 25.4566 23.323 25.4678C23.3291 25.4789 23.3352 25.4915 23.3404 25.5039C23.3537 25.5354 23.3485 25.5346 23.3407 25.4879C23.3361 25.4605 23.3041 25.2694 23.3646 24.9704C23.4251 24.6709 23.6323 24.0392 24.29 23.5459L27.89 28.3459C28.7716 27.6847 29.1187 26.7873 29.2456 26.1591C29.3725 25.5313 29.3335 24.9485 29.259 24.5015C29.1103 23.6091 28.7277 22.7091 28.1955 21.964L23.3131 25.4514ZM24.4069 26.3924C24.4582 26.4083 24.4854 26.4168 24.5077 26.4241C24.5289 26.431 24.5259 26.4304 24.5094 26.4242C24.4933 26.4183 24.4464 26.4003 24.3811 26.3694C24.3165 26.3388 24.2129 26.2857 24.0902 26.2038L27.4184 21.2116C26.8684 20.8449 26.2124 20.6704 26.191 20.6638L24.4069 26.3924ZM24.3502 26.3741L24.3503 26.3741L26.2476 20.682L26.2476 20.682L24.3502 26.3741ZM24.5713 26.4385L24.5713 26.4385L26.0265 20.6176L26.0265 20.6176L24.5713 26.4385ZM21.6433 24.7309C22.7162 25.8979 23.9677 26.2556 24.4069 26.3924L26.1909 20.6637C26.1376 20.6471 26.1012 20.6357 26.0659 20.6243C26.0325 20.6135 26.0083 20.6051 25.9893 20.5983C25.9517 20.5847 25.9411 20.579 25.9455 20.5811C25.9512 20.584 25.9699 20.5939 25.9948 20.6121C26.0204 20.6308 26.0431 20.6513 26.0603 20.6701L21.6433 24.7309ZM20.9215 20.0336C19.8434 20.2732 19.0816 19.8071 18.9691 19.7386C18.7642 19.6138 18.6783 19.513 18.7193 19.5554C18.7858 19.6241 18.9693 19.8444 19.2486 20.2737C19.7884 21.1032 20.4625 22.3665 21.0827 23.8547L26.6209 21.5463C25.8868 19.785 25.0501 18.1884 24.2777 17.0014C23.901 16.4225 23.4782 15.8454 23.0325 15.3845C22.8173 15.162 22.4988 14.8632 22.0903 14.6143C21.7742 14.4218 20.8379 13.9058 19.6199 14.1765L20.9215 20.0336ZM19.0962 22.0286C19.9249 22.2358 20.5841 22.7835 20.9565 23.4707C21.2678 24.0451 21.2994 24.563 21.302 24.7837C21.3051 25.0345 21.2717 25.2201 21.2556 25.2993C21.2373 25.39 21.2189 25.449 21.2133 25.4663C21.2064 25.4881 21.2479 25.371 21.3971 25.078C21.669 24.5442 22.0699 23.868 22.3621 23.404L17.2847 20.2071C16.9427 20.7502 16.4372 21.596 16.0507 22.3547C15.8707 22.7081 15.6451 23.1798 15.498 23.6402C15.4386 23.8261 15.2957 24.2925 15.3025 24.8563C15.306 25.1432 15.3483 25.715 15.6814 26.3295C16.0756 27.0569 16.7675 27.631 17.641 27.8494L19.0962 22.0286ZM18.4797 23.428C18.6214 22.8614 18.9001 22.4758 19.0821 22.2672C19.2675 22.0546 19.4415 21.9236 19.534 21.8593C19.6338 21.7899 19.7108 21.7487 19.7459 21.7308C19.7659 21.7207 19.7808 21.7137 19.7895 21.7098C19.7941 21.7077 19.7975 21.7062 19.7996 21.7053C19.8018 21.7044 19.803 21.7039 19.8031 21.7038C19.8032 21.7038 19.7998 21.7052 19.7928 21.7078C19.7857 21.7104 19.7759 21.7139 19.7632 21.7182C19.7373 21.7271 19.7031 21.738 19.6604 21.7505C19.5737 21.7758 19.4678 21.8031 19.3482 21.83C19.1023 21.8852 18.8568 21.9255 18.6786 21.9455C18.588 21.9557 18.5495 21.9567 18.557 21.9565C18.5612 21.9565 18.6019 21.9555 18.6688 21.9598C18.7196 21.9631 18.8812 21.9748 19.0962 22.0286L17.641 27.8494C18.1078 27.9661 18.5329 27.9585 18.6877 27.9551C18.9159 27.9501 19.1441 27.931 19.349 27.908C19.7618 27.8616 20.2227 27.783 20.6624 27.6843C21.0842 27.5896 21.5951 27.4524 22.0644 27.2614C22.2895 27.1698 22.6235 27.0189 22.9591 26.7855C23.1779 26.6335 24.0111 26.0413 24.3006 24.8832L18.4797 23.428ZM17.5739 23.7904C17.8118 24.06 18.1572 24.4774 18.4136 24.8343C18.4746 24.9192 18.5231 24.9904 18.5596 25.047C18.5979 25.1064 18.6112 25.1316 18.6085 25.1266C18.6065 25.1227 18.5953 25.1013 18.5791 25.0644C18.5638 25.0295 18.5355 24.9614 18.506 24.866C18.478 24.7757 18.4344 24.615 18.4112 24.4029C18.3889 24.1991 18.3744 23.8494 18.4797 23.428L24.3006 24.8832C24.5146 24.0271 24.3081 23.3192 24.237 23.0897C24.1384 22.7717 24.0093 22.5051 23.9151 22.3265C23.7224 21.9613 23.4851 21.61 23.2867 21.3339C22.8773 20.7639 22.3945 20.1852 22.0729 19.8207L17.5739 23.7904ZM6.92065 15.9872C8.47076 15.3744 9.75508 14.7736 10.7902 14.29L8.25033 8.85409C7.21398 9.33832 6.07748 9.86868 4.7147 10.4075L6.92065 15.9872ZM6.85479 16.4254C6.37195 16.2475 6.07363 16.0891 5.90321 15.9781C5.73296 15.8671 5.73452 15.8324 5.79379 15.9141C5.86464 16.0117 5.95712 16.1934 5.98904 16.437C6.01956 16.6699 5.97968 16.8429 5.95413 16.9199C5.9319 16.9869 5.92279 16.9773 5.98204 16.894C6.03931 16.8135 6.1349 16.7003 6.27825 16.563C6.57191 16.2817 6.95442 16.0057 7.32079 15.7936L4.31457 10.6011C3.61779 11.0045 2.83085 11.5566 2.12781 12.2301C1.45763 12.872 0.662517 13.815 0.259196 15.0311C-0.197039 16.4066 -0.0955753 18.0143 0.937822 19.4382C1.84505 20.6883 3.25531 21.4936 4.78056 22.0555L6.85479 16.4254ZM11.482 25.9163C11.85 25.72 12.7749 25.2344 13.4046 24.401C13.7892 23.892 14.1726 23.1161 14.143 22.1306C14.1141 21.1687 13.7034 20.4262 13.3188 19.9397C12.6431 19.0851 11.6304 18.4956 10.76 18.0568C9.7828 17.5641 8.49296 17.029 6.85479 16.4254L4.78056 22.0555C6.33182 22.627 7.3781 23.0711 8.05861 23.4143C8.84586 23.8112 8.81235 23.9141 8.61228 23.6611C8.46541 23.4754 8.16671 23.0109 8.14567 22.3108C8.12393 21.5872 8.41115 21.057 8.61739 20.784C8.79749 20.5456 8.9526 20.4486 8.91703 20.4734C8.89785 20.4867 8.82582 20.5329 8.65848 20.6222L11.482 25.9163ZM6.82359 28.3026C7.79392 27.8174 10.1008 26.6529 11.482 25.9163L8.65848 20.6222C7.35384 21.318 5.10974 22.4513 4.1403 22.936L6.82359 28.3026ZM5.88903 25.4986C5.61473 25.3365 6.1511 25.5509 6.40333 26.3612C6.54659 26.8214 6.54038 27.3086 6.40938 27.7439C6.28935 28.1427 6.09594 28.3994 5.98809 28.5219C5.80327 28.7319 5.69249 28.7521 5.85618 28.6712C5.97575 28.6121 6.13962 28.5507 6.29418 28.5073L4.66971 22.7314C4.22742 22.8558 3.70678 23.0406 3.19684 23.2927C2.73105 23.5231 2.04579 23.9196 1.48421 24.5577C0.871915 25.2533 0.17888 26.5524 0.674477 28.1445C1.08804 29.4731 2.12614 30.2443 2.83665 30.6641L5.88903 25.4986ZM10.2227 24.0437C9.57442 24.4268 8.46316 24.9612 7.37524 25.2637C6.83569 25.4138 6.40062 25.4787 6.08933 25.4815C5.76639 25.4845 5.75665 25.4203 5.88903 25.4986L2.83665 30.6641C4.96138 31.9196 7.48476 31.4609 8.98269 31.0444C10.6851 30.571 12.282 29.7961 13.2751 29.2093L10.2227 24.0437ZM10.4224 20.8763C11.056 21.3409 11.2212 21.6793 11.2676 21.8055C11.3119 21.9259 11.3322 22.0791 11.2657 22.3343C11.0977 22.9798 10.4894 23.782 9.85176 24.3025L13.646 28.9505C14.8362 27.9789 16.4662 26.1736 17.0722 23.846C17.3927 22.6147 17.434 21.1899 16.8989 19.7348C16.366 18.2854 15.3514 17.0505 13.9706 16.0379L10.4224 20.8763ZM7.90921 19.6596C8.24647 19.8001 9.39412 20.3228 10.7257 21.0718L13.6673 15.8424C12.1341 14.9799 10.7749 14.3536 10.2169 14.1211L7.90921 19.6596ZM8.83548 12.03C8.02873 12.3943 7.28418 12.8064 6.69206 13.3059C6.17438 13.7427 5.25008 14.6904 5.21881 16.1636C5.1844 17.7853 6.22842 18.7471 6.78891 19.131C7.37181 19.5301 7.98172 19.7211 8.3982 19.8158L9.72792 13.965C9.73406 13.9664 9.91778 14.0016 10.1789 14.1804C10.4177 14.3439 11.2444 15.0209 11.2175 16.2909C11.2054 16.8586 11.0126 17.284 10.858 17.5309C10.7112 17.7653 10.5752 17.8799 10.5612 17.8918C10.5463 17.9043 10.7241 17.7605 11.305 17.4982L8.83548 12.03ZM10.23 11.4183C9.81642 11.5966 9.34429 11.8002 8.83548 12.03L11.305 17.4982C11.7608 17.2923 12.1884 17.1078 12.6061 16.9277L10.23 11.4183ZM11.8451 11.0644C11.9008 11.3098 11.842 11.2397 11.8996 11.007C11.9698 10.723 12.1258 10.5348 12.1902 10.4745C12.2054 10.4602 12.1125 10.5475 11.7362 10.7388C11.3655 10.9271 10.9 11.1293 10.23 11.4183L12.6061 16.9277C13.223 16.6616 13.8802 16.3795 14.4547 16.0875C15.0236 15.7984 15.6982 15.4092 16.29 14.8553C16.931 14.2554 17.4726 13.4644 17.7241 12.4477C17.9629 11.4821 17.881 10.5492 17.6959 9.73473L11.8451 11.0644ZM10.7902 14.29C12.0675 13.6932 12.7712 13.3748 13.3126 13.2252C13.7332 13.109 13.6879 13.2014 13.5521 13.141L15.9889 7.65815C14.4483 6.97348 12.9711 7.09464 11.7143 7.44197C10.5784 7.7559 9.35945 8.33587 8.25034 8.85409L10.7902 14.29Z" fill="#FFE0E0" mask="url(#path-1-outside-1_52_883)"/>
</svg>

